<?xml version="1.0" encoding="UTF-8" standalone="no"?>
<svg width="20px" height="20px" viewBox="0 0 20 20" version="1.1" xmlns="http://www.w3.org/2000/svg" xmlns:xlink="http://www.w3.org/1999/xlink" xmlns:sketch="http://www.bohemiancoding.com/sketch/ns">
    <!-- Generator: Sketch 3.4.4 (17249) - http://www.bohemiancoding.com/sketch -->
    <title>clear-icon-5</title>
    <desc>Created with Sketch.</desc>
    <defs></defs>
    <g id="Page-1" stroke="none" stroke-width="1" fill="none" fill-rule="evenodd" sketch:type="MSPage">
        <g id="icon-search" sketch:type="MSArtboardGroup" transform="translate(-496.000000, -628.000000)" fill="#000000">
            <path d="M506,648 C511.522847,648 516,643.522847 516,638 C516,632.477153 511.522847,628 506,628 C500.477153,628 496,632.477153 496,638 C496,643.522847 500.477153,648 506,648 Z M507.34912,637.876543 L510.917414,641.444837 L509.691751,642.670501 L506.123457,639.102206 L502.555163,642.670501 L501.329499,641.444837 L504.897794,637.876543 L501.329499,634.308249 L502.555163,633.082586 L506.123457,636.65088 L509.691751,633.082586 L510.917414,634.308249 L507.34912,637.876543 Z M506,646.271605 C510.568281,646.271605 514.271605,642.568281 514.271605,638 C514.271605,633.431719 510.568281,629.728395 506,629.728395 C501.431719,629.728395 497.728395,633.431719 497.728395,638 C497.728395,642.568281 501.431719,646.271605 506,646.271605 Z" id="clear-icon-5" sketch:type="MSShapeGroup"></path>
        </g>
    </g>
</svg>