<?xml version="1.0" encoding="UTF-8" standalone="no"?>
<svg width="81px" height="81px" viewBox="0 0 81 81" version="1.1" xmlns="http://www.w3.org/2000/svg" xmlns:xlink="http://www.w3.org/1999/xlink" xmlns:sketch="http://www.bohemiancoding.com/sketch/ns">
    <!-- Generator: Sketch 3.4.4 (17249) - http://www.bohemiancoding.com/sketch -->
    <title>clear-icon-5</title>
    <desc>Created with Sketch.</desc>
    <defs></defs>
    <g id="Page-1" stroke="none" stroke-width="1" fill="none" fill-rule="evenodd" sketch:type="MSPage">
        <g id="icon-search" sketch:type="MSArtboardGroup" transform="translate(-97.000000, -1143.000000)" fill="#000000">
            <g id="sizing" sketch:type="MSLayerGroup" transform="translate(45.000000, 343.000000)">
                <path d="M97.3258887,840 L109.919922,852.594033 L105.594033,856.919922 L93,844.325889 L80.4059669,856.919922 L76.0800781,852.594033 L88.6741113,840 L76.0800781,827.405967 L80.4059669,823.080078 L93,835.674111 L105.594033,823.080078 L109.919922,827.405967 L97.3258887,840 Z M92.5,881 C114.867532,881 133,862.867532 133,840.5 C133,818.132468 114.867532,800 92.5,800 C70.1324676,800 52,818.132468 52,840.5 C52,862.867532 70.1324676,881 92.5,881 Z M92.5,874 C111.001539,874 126,859.001539 126,840.5 C126,821.998461 111.001539,807 92.5,807 C73.9984609,807 59,821.998461 59,840.5 C59,859.001539 73.9984609,874 92.5,874 Z" id="clear-icon-5" sketch:type="MSShapeGroup"></path>
            </g>
        </g>
    </g>
</svg>