<?xml version="1.0" encoding="UTF-8" standalone="no"?>
<svg width="34px" height="34px" viewBox="0 0 34 34" version="1.1" xmlns="http://www.w3.org/2000/svg" xmlns:xlink="http://www.w3.org/1999/xlink" xmlns:sketch="http://www.bohemiancoding.com/sketch/ns">
    <!-- Generator: Sketch 3.4.4 (17249) - http://www.bohemiancoding.com/sketch -->
    <title>download-icon</title>
    <desc>Created with Sketch.</desc>
    <defs></defs>
    <g id="Page-1" stroke="none" stroke-width="1" fill="none" fill-rule="evenodd" sketch:type="MSPage">
        <g id="icon-search" sketch:type="MSArtboardGroup" transform="translate(-549.000000, -656.000000)" fill="#000000">
            <path d="M570,673 L570,663 L562,663 L562,673 L557,673 L566,684 L575,673 L570,673 Z M566,690 C575.388841,690 583,682.388841 583,673 C583,663.611159 575.388841,656 566,656 C556.611159,656 549,663.611159 549,673 C549,682.388841 556.611159,690 566,690 Z M566.04234,687.04234 C573.774326,687.04234 580.04234,680.774326 580.04234,673.04234 C580.04234,665.310353 573.774326,659.04234 566.04234,659.04234 C558.310353,659.04234 552.04234,665.310353 552.04234,673.04234 C552.04234,680.774326 558.310353,687.04234 566.04234,687.04234 Z" id="download-icon" sketch:type="MSShapeGroup"></path>
        </g>
    </g>
</svg>