<?xml version="1.0" encoding="UTF-8" standalone="no"?>
<svg width="71px" height="72px" viewBox="0 0 71 72" version="1.1" xmlns="http://www.w3.org/2000/svg" xmlns:xlink="http://www.w3.org/1999/xlink" xmlns:sketch="http://www.bohemiancoding.com/sketch/ns">
    <!-- Generator: Sketch 3.4.4 (17249) - http://www.bohemiancoding.com/sketch -->
    <title>github-banner</title>
    <desc>Created with Sketch.</desc>
    <defs></defs>
    <g id="Page-1" stroke="none" stroke-width="1" fill="none" fill-rule="evenodd" sketch:type="MSPage">
        <g id="icon-search" sketch:type="MSArtboardGroup" transform="translate(-876.000000, -38.000000)" fill="#FFFFFF">
            <path d="M878.854196,81.5404785 C878.854196,81.5404785 922.0833,81.5586076 923.027453,81.5414792 C923.971605,81.5243509 924.139453,81.1884792 924.139453,80.7564792 C924.139453,80.3694792 924.125453,79.3454792 924.117453,77.9864792 C919.586453,78.9704792 918.630453,75.8024792 918.630453,75.8024792 C917.889453,73.9204792 916.821453,73.4194792 916.821453,73.4194792 C915.342453,72.4094792 916.933453,72.4294792 916.933453,72.4294792 C918.568453,72.5444792 919.428453,74.1084792 919.428453,74.1084792 C920.881453,76.5974792 923.241453,75.8784792 924.169453,75.4614792 C924.317453,74.4094792 924.738453,73.6914792 925.203453,73.2844792 C921.586453,72.8734792 917.783453,71.4754792 917.783453,65.2334792 C917.783453,63.4554792 918.418453,62.0004792 919.460453,60.8624792 C919.292453,60.4504792 918.733453,58.7934792 919.620453,56.5514792 C919.620453,56.5514792 920.987453,56.1134792 924.099453,58.2214792 C925.398453,57.8594792 926.792453,57.6794792 928.177453,57.6724792 C929.561453,57.6794792 930.954453,57.8594792 932.255453,58.2214792 C935.365453,56.1134792 936.730453,56.5514792 936.730453,56.5514792 C937.619453,58.7934792 937.060453,60.4504792 936.893453,60.8624792 C937.937453,62.0004792 938.567453,63.4554792 938.567453,65.2334792 C938.567453,71.4914792 934.758453,72.8684792 931.130453,73.2714792 C931.714453,73.7744792 932.235453,74.7684792 932.235453,76.2874792 C932.235453,78.4654792 932.215453,80.2224792 932.215453,80.7564792 C932.215453,81.1924792 933.335453,81.5404792 933.335453,81.5404792 L978.779985,81.5404785 L929.040823,32.0853394" id="github-banner" sketch:type="MSShapeGroup" transform="translate(928.817090, 56.817090) rotate(-315.000000) translate(-928.817090, -56.817090) "></path>
        </g>
    </g>
</svg>