<?xml version="1.0" encoding="UTF-8" standalone="no"?>
<svg width="183px" height="183px" viewBox="0 0 183 183" version="1.1" xmlns="http://www.w3.org/2000/svg" xmlns:xlink="http://www.w3.org/1999/xlink" xmlns:sketch="http://www.bohemiancoding.com/sketch/ns">
    <!-- Generator: Sketch 3.4.4 (17249) - http://www.bohemiancoding.com/sketch -->
    <title>github-banner</title>
    <desc>Created with Sketch.</desc>
    <defs></defs>
    <g id="Page-1" stroke="none" stroke-width="1" fill="none" fill-rule="evenodd" sketch:type="MSPage">
        <g id="icon-search" sketch:type="MSArtboardGroup" transform="translate(-821.000000, -1.000000)" fill="#FFFFFF">
            <path d="M828.916018,111.771046 C828.916018,111.771046 940.357851,110.986234 942.809984,110.941749 C945.262117,110.897263 945.698047,110.024945 945.698047,108.902963 C945.698047,107.897855 945.661687,105.238343 945.640909,101.708777 C933.873091,104.264401 931.390187,96.0365377 931.390187,96.0365377 C929.465678,91.1486466 926.69189,89.8474598 926.69189,89.8474598 C922.850662,87.2243089 926.982774,87.2762524 926.982774,87.2762524 C931.229162,87.574928 933.462736,91.6369162 933.462736,91.6369162 C937.236438,98.1012951 943.36578,96.2339233 945.775963,95.1508996 C946.160345,92.4186672 947.253758,90.5538925 948.461446,89.4968406 C939.067449,88.4294 929.190377,84.7985435 929.190377,68.5869513 C929.190377,63.9691668 930.839585,60.1902711 933.545846,57.2346812 C933.10952,56.1646434 931.657697,51.8611176 933.961395,46.0382419 C933.961395,46.0382419 937.511739,44.9006774 945.59416,50.3755311 C948.967896,49.4353522 952.588364,48.96786 956.185457,48.9496797 C959.779953,48.96786 963.397823,49.4353522 966.776753,50.3755311 C974.85398,44.9006774 978.39913,46.0382419 978.39913,46.0382419 C980.708022,51.8611176 979.256199,56.1646434 978.82247,57.2346812 C981.533925,60.1902711 983.170148,63.9691668 983.170148,68.5869513 C983.170148,84.8400984 973.277493,88.4164141 963.854927,89.4630773 C965.371679,90.7694584 966.72481,93.3510545 966.72481,97.2961696 C966.72481,102.952826 966.672866,107.51607 966.672866,108.902963 C966.672866,110.035333 969.581707,110.939152 969.581707,110.939152 L1087.23639,111.312056 L958.3057,-17.6186362" id="github-banner" sketch:type="MSShapeGroup" transform="translate(958.076205, 47.076205) rotate(-315.000000) translate(-958.076205, -47.076205) "></path>
        </g>
    </g>
</svg>