<?xml version="1.0" encoding="UTF-8" standalone="no"?>
<svg width="60px" height="41px" viewBox="0 0 60 41" version="1.1" xmlns="http://www.w3.org/2000/svg" xmlns:xlink="http://www.w3.org/1999/xlink" xmlns:sketch="http://www.bohemiancoding.com/sketch/ns">
    <!-- Generator: Sketch 3.4.4 (17249) - http://www.bohemiancoding.com/sketch -->
    <title>jsfiddle-logo</title>
    <desc>Created with Sketch.</desc>
    <defs></defs>
    <g id="Page-1" stroke="none" stroke-width="1" fill="none" fill-rule="evenodd" sketch:type="MSPage">
        <g id="icon-search" sketch:type="MSArtboardGroup" transform="translate(-666.000000, -654.000000)" fill="#000000">
            <path d="M718.721013,672.626148 C718.74243,672.27537 718.774177,671.92763 718.774177,671.572296 C718.774177,661.867444 710.782937,654 700.924557,654 C693.815696,654 687.695696,658.1 684.82481,664.020704 C683.431899,662.957741 681.688101,662.318444 679.790886,662.318444 C675.243038,662.318444 671.556456,665.947704 671.556456,670.424296 C671.556456,671.265556 671.68557,672.077963 671.928608,672.840259 C668.383291,674.916074 666,678.71237 666,683.067481 C666,689.578889 671.311899,694.860296 677.902785,694.960519 L678.042532,694.968111 L678.091139,694.96963 L678.139747,694.968111 L713.538228,694.968111 C713.753924,694.978589 713.965063,695 714.183797,695 C720.709367,695 726,689.793 726,683.368148 C726,678.525593 722.993924,674.378519 718.721013,672.626148 L718.721013,672.626148 Z M682.107342,686.001259 C680.908861,684.916885 680.163038,683.601848 679.863797,682.053111 C679.765063,681.535296 679.714937,680.993185 679.714937,680.422222 C679.713418,678.214296 680.516962,676.388885 682.127089,674.951152 C683.735696,673.511596 685.781772,672.7903 688.266835,672.791667 C690.817215,672.791667 693.221772,673.745296 695.345316,675.654074 C695.875443,676.129522 696.387342,676.665407 696.881013,677.259148 L699.612,680.469448 C700.084557,681.116337 700.591899,681.675 701.115797,682.145741 C702.517823,683.404744 704.039848,684.034778 705.325063,684.034778 C706.418582,684.034778 707.331494,683.700704 708.066684,683.029519 C708.707848,682.419074 709.069367,681.688667 709.149873,680.842852 L709.16643,680.472485 C709.16643,680.105004 709.114785,679.757263 709.008608,679.430933 C708.833924,678.887304 708.513266,678.398189 708.048608,677.962374 C707.322532,677.26993 706.407949,676.928263 705.299241,676.928263 C703.936557,676.928263 702.589215,677.386856 701.112759,678.817148 L698.694532,675.974481 L698.399848,675.644963 C700.51443,673.573704 702.625671,672.796222 705.467696,672.796222 C707.986177,672.796222 710.024658,673.511444 711.584658,674.939004 L711.619595,674.967704 C713.205266,676.392074 713.999848,678.234037 713.999848,680.493744 C713.999848,681.052559 713.949722,681.586926 713.850987,682.09563 C713.553418,683.624778 712.806076,684.927667 711.612,686.007333 C710.439494,687.087152 709.008608,687.762893 707.319342,688.031519 C706.756101,688.121111 706.163544,688.166667 705.542278,688.166667 C702.934177,688.165148 700.521873,687.232778 698.446937,685.371074 C697.886582,684.866926 697.35038,684.295963 696.841519,683.655148 L694.11038,680.467778 C693.648608,679.828481 693.148861,679.275741 692.629367,678.808037 C691.23038,677.55207 689.688608,676.923556 688.367089,676.923556 C687.956962,676.923556 687.572658,676.971996 687.214177,677.067815 C686.618734,677.227259 686.097722,677.521852 685.648101,677.950226 C685.098228,678.473963 684.753418,679.076967 684.616709,679.75863 C684.571139,679.984889 684.546835,680.221778 684.548354,680.466259 C684.548354,681.435074 684.897722,682.264185 685.596456,682.952074 L685.64962,683.002185 C686.4,683.688556 687.322025,684.030222 688.415696,684.030222 C689.79038,684.030222 691.143797,683.568744 692.617215,682.126152 L695.023291,684.933741 L695.289114,685.254148 C693.092658,687.349704 691.004051,688.14237 688.271392,688.140852 C685.75443,688.140852 683.700759,687.427148 682.107342,686.001259 L682.107342,686.001259 Z" id="jsfiddle-logo" sketch:type="MSShapeGroup"></path>
        </g>
    </g>
</svg>