<?xml version="1.0" encoding="UTF-8" standalone="no"?>
<svg width="40px" height="40px" viewBox="0 0 40 40" version="1.1" xmlns="http://www.w3.org/2000/svg" xmlns:xlink="http://www.w3.org/1999/xlink" xmlns:sketch="http://www.bohemiancoding.com/sketch/ns">
    <!-- Generator: Sketch 3.4.4 (17249) - http://www.bohemiancoding.com/sketch -->
    <title>sbx-icon-search-11</title>
    <desc>Created with Sketch.</desc>
    <defs></defs>
    <g id="Page-1" stroke="none" stroke-width="1" fill="none" fill-rule="evenodd" sketch:type="MSPage">
        <g id="icon-search" sketch:type="MSArtboardGroup" transform="translate(-386.000000, -490.000000)" fill="#000000">
            <path d="M401.553196,521.106391 C410.142988,521.106391 417.106391,514.142988 417.106391,505.553196 C417.106391,496.963403 410.142988,490 401.553196,490 C392.963403,490 386,496.963403 386,505.553196 C386,514.142988 392.963403,521.106391 401.553196,521.106391 Z M401.553196,517.218092 C407.99554,517.218092 413.218092,511.99554 413.218092,505.553196 C413.218092,499.110851 407.99554,493.888299 401.553196,493.888299 C395.110851,493.888299 389.888299,499.110851 389.888299,505.553196 C389.888299,511.99554 395.110851,517.218092 401.553196,517.218092 Z M413.761338,521.060669 C412.979716,520.279047 412.982231,519.009273 413.764447,518.227056 L414.227056,517.764447 C415.010396,516.981108 416.28424,516.984909 417.060669,517.761338 L425.227936,525.928605 C426.009558,526.710227 426.007043,527.980001 425.224827,528.762217 L424.762217,529.224827 C423.978878,530.008166 422.705033,530.004364 421.928605,529.227936 L413.761338,521.060669 Z" id="sbx-icon-search-11" sketch:type="MSShapeGroup"></path>
        </g>
    </g>
</svg>