<?xml version="1.0" encoding="UTF-8" standalone="no"?>
<svg width="41px" height="40px" viewBox="0 0 41 40" version="1.1" xmlns="http://www.w3.org/2000/svg" xmlns:xlink="http://www.w3.org/1999/xlink" xmlns:sketch="http://www.bohemiancoding.com/sketch/ns">
    <!-- Generator: Sketch 3.4.4 (17249) - http://www.bohemiancoding.com/sketch -->
    <title>sbx-icon-search-21</title>
    <desc>Created with Sketch.</desc>
    <defs></defs>
    <g id="Page-1" stroke="none" stroke-width="1" fill="none" fill-rule="evenodd" sketch:type="MSPage">
        <g id="icon-search" sketch:type="MSArtboardGroup" transform="translate(-246.000000, -419.000000)" fill="#000000">
            <path d="M273.736975,445.488736 C273.74278,445.494188 273.748516,445.499745 273.754179,445.505409 L285.903641,457.654871 C286.208871,457.9601 286.209142,458.454703 285.899458,458.764387 C285.591919,459.071927 285.089662,459.068291 284.789942,458.76857 L272.667829,446.646457 C269.836608,449.424726 265.988896,451.132838 261.750088,451.132838 C253.051554,451.132838 246,443.939657 246,435.066419 C246,426.193181 253.051554,419 261.750088,419 C270.448621,419 277.500175,426.193181 277.500175,435.066419 C277.500175,439.043511 276.08356,442.68309 273.736975,445.488736 Z M261.750088,449.526196 C269.578768,449.526196 275.925167,443.052333 275.925167,435.066419 C275.925167,427.080505 269.578768,420.606642 261.750088,420.606642 C253.921408,420.606642 247.575009,427.080505 247.575009,435.066419 C247.575009,443.052333 253.921408,449.526196 261.750088,449.526196 Z M261.750088,423.016605 C255.226188,423.016605 249.937522,428.41149 249.937522,435.066419 C249.937522,435.510081 250.2901,435.86974 250.725026,435.86974 C251.159953,435.86974 251.512531,435.510081 251.512531,435.066419 C251.512531,429.298814 256.096041,424.623247 261.750088,424.623247 C262.185014,424.623247 262.537592,424.263588 262.537592,423.819926 C262.537592,423.376264 262.185014,423.016605 261.750088,423.016605 Z" id="sbx-icon-search-21" sketch:type="MSShapeGroup"></path>
        </g>
    </g>
</svg>