<?xml version="1.0" encoding="UTF-8" standalone="no"?>
<svg width="40px" height="41px" viewBox="0 0 40 41" version="1.1" xmlns="http://www.w3.org/2000/svg" xmlns:xlink="http://www.w3.org/1999/xlink" xmlns:sketch="http://www.bohemiancoding.com/sketch/ns">
    <!-- Generator: Sketch 3.4.4 (17249) - http://www.bohemiancoding.com/sketch -->
    <title>sbx-icon-search-12</title>
    <desc>Created with Sketch.</desc>
    <defs></defs>
    <g id="Page-1" stroke="none" stroke-width="1" fill="none" fill-rule="evenodd" sketch:type="MSPage">
        <g id="icon-search" sketch:type="MSArtboardGroup" transform="translate(-316.000000, -490.000000)" fill="#000000">
            <path d="M346.967194,517.727377 L346.937857,517.69804 C346.159332,516.919515 344.899272,516.920313 344.121598,517.697986 L342.911795,518.90779 C342.132756,519.686828 342.134145,520.946345 342.911848,521.724048 L342.941186,521.753386 L346.967194,517.727377 Z M348.050371,518.810554 L355.239969,526.000152 C356.017672,526.777855 356.019061,528.037372 355.240023,528.81641 L354.030219,530.026214 C353.252546,530.803887 351.992486,530.804685 351.213961,530.02616 L344.024363,522.836562 L348.050371,518.810554 Z M331.723827,521.447653 C340.407856,521.447653 347.447653,514.407856 347.447653,505.723827 C347.447653,497.039797 340.407856,490 331.723827,490 C323.039797,490 316,497.039797 316,505.723827 C316,514.407856 323.039797,521.447653 331.723827,521.447653 Z M331.723827,517.516697 C338.236849,517.516697 343.516697,512.236849 343.516697,505.723827 C343.516697,499.210804 338.236849,493.930957 331.723827,493.930957 C325.210804,493.930957 319.930957,499.210804 319.930957,505.723827 C319.930957,512.236849 325.210804,517.516697 331.723827,517.516697 Z" id="sbx-icon-search-12" sketch:type="MSShapeGroup"></path>
        </g>
    </g>
</svg>