<?xml version="1.0" encoding="UTF-8" standalone="no"?>
<svg width="40px" height="40px" viewBox="0 0 40 40" version="1.1" xmlns="http://www.w3.org/2000/svg" xmlns:xlink="http://www.w3.org/1999/xlink" xmlns:sketch="http://www.bohemiancoding.com/sketch/ns">
    <!-- Generator: Sketch 3.4.4 (17249) - http://www.bohemiancoding.com/sketch -->
    <title>sbx-icon-search-16</title>
    <desc>Created with Sketch.</desc>
    <defs></defs>
    <g id="Page-1" stroke="none" stroke-width="1" fill="none" fill-rule="evenodd" sketch:type="MSPage">
        <g id="icon-search" sketch:type="MSArtboardGroup" transform="translate(-596.000000, -419.000000)" fill="#000000">
            <path d="M620.440581,449.411072 C618.044258,450.79678 615.2623,451.589836 612.29511,451.589836 C603.295569,451.589836 596,444.294353 596,435.294918 C596,426.295483 603.295569,419 612.29511,419 C621.294651,419 628.590221,426.295483 628.590221,435.294918 C628.590221,438.26204 627.797173,441.043937 626.411476,443.440214 L634.699939,451.728677 C636.349236,453.377973 636.346273,456.054973 634.700816,457.70043 C633.052004,459.349242 630.383264,459.353755 628.729063,457.699553 L620.440581,449.411072 Z M612.29511,449.960344 C620.394697,449.960344 626.96071,443.394409 626.96071,435.294918 C626.96071,427.195427 620.394697,420.629492 612.29511,420.629492 C604.195523,420.629492 597.629511,427.195427 597.629511,435.294918 C597.629511,443.394409 604.195523,449.960344 612.29511,449.960344 Z M612.29511,445.071869 C617.694835,445.071869 622.072177,440.694579 622.072177,435.294918 C622.072177,429.895257 617.694835,425.517967 612.29511,425.517967 C606.895386,425.517967 602.518044,429.895257 602.518044,435.294918 C602.518044,440.694579 606.895386,445.071869 612.29511,445.071869 Z M612.29511,443.442377 C616.794881,443.442377 620.442666,439.794635 620.442666,435.294918 C620.442666,430.795201 616.794881,427.147459 612.29511,427.147459 C607.79534,427.147459 604.147555,430.795201 604.147555,435.294918 C604.147555,439.794635 607.79534,443.442377 612.29511,443.442377 Z M622.018153,448.710119 L625.710507,445.017766 L633.695572,453.002832 C634.717231,454.024491 634.716813,455.681345 633.699273,456.698886 C632.679658,457.718501 631.031491,457.723457 630.003219,456.695185 L622.018153,448.710119 Z" id="sbx-icon-search-16" sketch:type="MSShapeGroup"></path>
        </g>
    </g>
</svg>