<?xml version="1.0" encoding="UTF-8" standalone="no"?>
<svg width="40px" height="41px" viewBox="0 0 40 41" version="1.1" xmlns="http://www.w3.org/2000/svg" xmlns:xlink="http://www.w3.org/1999/xlink" xmlns:sketch="http://www.bohemiancoding.com/sketch/ns">
    <!-- Generator: Sketch 3.4.4 (17249) - http://www.bohemiancoding.com/sketch -->
    <title>sbx-icon-search-9</title>
    <desc>Created with Sketch.</desc>
    <defs></defs>
    <g id="Page-1" stroke="none" stroke-width="1" fill="none" fill-rule="evenodd" sketch:type="MSPage">
        <g id="icon-search" sketch:type="MSArtboardGroup" transform="translate(-526.000000, -490.000000)" fill="#000000">
            <path d="M551.251459,522.201279 C548.833435,523.507437 546.065522,524.248875 543.124437,524.248875 C533.666872,524.248875 526,516.582003 526,507.124437 C526,497.666872 533.666872,490 543.124437,490 C552.582003,490 560.248875,497.666872 560.248875,507.124437 C560.248875,510.400545 559.3289,513.461782 557.733199,516.063898 C558.02247,516.245091 558.295938,516.461459 558.547472,516.712993 L564.651948,522.817469 C566.451622,524.617144 566.447454,527.539161 564.650819,529.335796 C562.850521,531.136094 559.930894,531.135328 558.132492,529.336925 L552.028015,523.232449 C551.714408,522.918842 551.455576,522.571154 551.251459,522.201279 Z M543.124437,518.084077 C549.177279,518.084077 554.084077,513.177279 554.084077,507.124437 C554.084077,501.071595 549.177279,496.164797 543.124437,496.164797 C537.071595,496.164797 532.164797,501.071595 532.164797,507.124437 C532.164797,513.177279 537.071595,518.084077 543.124437,518.084077 Z" id="sbx-icon-search-9" sketch:type="MSShapeGroup"></path>
        </g>
    </g>
</svg>