<?xml version="1.0" encoding="UTF-8" standalone="no"?>
<svg width="40px" height="40px" viewBox="0 0 40 40" version="1.1" xmlns="http://www.w3.org/2000/svg" xmlns:xlink="http://www.w3.org/1999/xlink" xmlns:sketch="http://www.bohemiancoding.com/sketch/ns">
    <!-- Generator: Sketch 3.4.4 (17249) - http://www.bohemiancoding.com/sketch -->
    <title>sbx-icon-search-6</title>
    <desc>Created with Sketch.</desc>
    <defs></defs>
    <g id="Page-1" stroke="none" stroke-width="1" fill="none" fill-rule="evenodd" sketch:type="MSPage">
        <g id="icon-search" sketch:type="MSArtboardGroup" transform="translate(-176.000000, -561.000000)" fill="#000000">
            <path d="M204.294702,593.517211 C201.366207,595.602651 197.783633,596.829176 193.914588,596.829176 C184.020634,596.829176 176,588.808542 176,578.914588 C176,569.020634 184.020634,561 193.914588,561 C203.808542,561 211.829176,569.020634 211.829176,578.914588 C211.829176,582.783633 210.602651,586.366207 208.517211,589.294702 L215.127281,595.904772 C216.29259,597.070081 216.289646,598.962364 215.126005,600.126005 C213.959992,601.292019 212.069643,601.292151 210.900819,600.123328 L204.294702,593.517211 Z M193.914588,593.843412 C202.15955,593.843412 208.843412,587.15955 208.843412,578.914588 C208.843412,570.669627 202.15955,563.985765 193.914588,563.985765 C185.669627,563.985765 178.985765,570.669627 178.985765,578.914588 C178.985765,587.15955 185.669627,593.843412 193.914588,593.843412 Z M193.914588,567.270106 C187.483518,567.270106 182.270106,572.483518 182.270106,578.914588 C182.270106,579.409286 182.671138,579.810318 183.165835,579.810318 C183.660533,579.810318 184.061565,579.409286 184.061565,578.914588 C184.061565,573.472914 188.472914,569.061565 193.914588,569.061565 C194.409286,569.061565 194.810318,568.660533 194.810318,568.165835 C194.810318,567.671138 194.409286,567.270106 193.914588,567.270106 Z" id="sbx-icon-search-6" sketch:type="MSShapeGroup"></path>
        </g>
    </g>
</svg>