<?xml version="1.0" encoding="UTF-8" standalone="no"?>
<svg width="40px" height="41px" viewBox="0 0 40 41" version="1.1" xmlns="http://www.w3.org/2000/svg" xmlns:xlink="http://www.w3.org/1999/xlink" xmlns:sketch="http://www.bohemiancoding.com/sketch/ns">
    <!-- Generator: Sketch 3.4.4 (17249) - http://www.bohemiancoding.com/sketch -->
    <title>sbx-icon-search-5</title>
    <desc>Created with Sketch.</desc>
    <defs></defs>
    <g id="Page-1" stroke="none" stroke-width="1" fill="none" fill-rule="evenodd" sketch:type="MSPage">
        <g id="icon-search" sketch:type="MSArtboardGroup" transform="translate(-246.000000, -560.000000)" fill="#000000">
            <path d="M271.098024,587.966681 C268.46722,589.990399 265.172548,591.193672 261.596836,591.193672 C252.982941,591.193672 246,584.210731 246,575.596836 C246,566.982941 252.982941,560 261.596836,560 C270.210731,560 277.193672,566.982941 277.193672,575.596836 C277.193672,579.703067 275.606858,583.438677 273.012989,586.22391 L274.357345,587.568266 L274.382261,587.54335 C275.160658,586.764953 276.425352,586.767616 277.204498,587.546763 L285.018212,595.360476 C285.798494,596.140758 285.797508,597.406831 285.021625,598.182714 L283.142925,600.061414 C282.364528,600.839811 281.099834,600.837148 280.320687,600.058001 L272.506974,592.244288 C271.726692,591.464006 271.727677,590.197933 272.503561,589.42205 L272.528477,589.397134 L271.098024,587.966681 Z M261.596836,588.5942 C268.775082,588.5942 274.5942,582.775082 274.5942,575.596836 C274.5942,568.41859 268.775082,562.599473 261.596836,562.599473 C254.41859,562.599473 248.599473,568.41859 248.599473,575.596836 C248.599473,582.775082 254.41859,588.5942 261.596836,588.5942 Z" id="sbx-icon-search-5" sketch:type="MSShapeGroup"></path>
        </g>
    </g>
</svg>