<?xml version="1.0" encoding="UTF-8" standalone="no"?>
<svg width="40px" height="40px" viewBox="0 0 40 40" version="1.1" xmlns="http://www.w3.org/2000/svg" xmlns:xlink="http://www.w3.org/1999/xlink" xmlns:sketch="http://www.bohemiancoding.com/sketch/ns">
    <!-- Generator: Sketch 3.4.4 (17249) - http://www.bohemiancoding.com/sketch -->
    <title>sbx-icon-search-15</title>
    <desc>Created with Sketch.</desc>
    <defs></defs>
    <g id="Page-1" stroke="none" stroke-width="1" fill="none" fill-rule="evenodd" sketch:type="MSPage">
        <g id="icon-search" sketch:type="MSArtboardGroup" transform="translate(-666.000000, -419.000000)" fill="#000000">
            <path d="M690.034319,448.906291 C687.677833,450.268986 684.942125,451.048871 682.024267,451.048871 C673.174309,451.048871 666,443.874487 666,435.024436 C666,426.174384 673.174309,419 682.024267,419 C690.874225,419 698.048534,426.174384 698.048534,435.024436 C698.048534,437.942353 697.268642,440.678115 695.905937,443.034641 L704.866857,451.995561 C706.041377,453.170081 706.050134,455.065597 704.873719,456.242012 L703.241674,457.874057 C702.070944,459.044787 700.174658,459.046629 698.995223,457.867195 L690.034319,448.906291 Z M682.024267,449.446428 C689.98923,449.446428 696.446108,442.989482 696.446108,435.024436 C696.446108,427.059389 689.98923,420.602444 682.024267,420.602444 C674.059305,420.602444 667.602427,427.059389 667.602427,435.024436 C667.602427,442.989482 674.059305,449.446428 682.024267,449.446428 Z M691.573839,448.205159 L695.204821,444.574176 L704.15963,453.528985 C704.552156,453.921511 704.560785,454.549291 704.17027,454.939805 L701.939468,457.170608 C701.552819,457.557257 700.917788,457.549108 700.528648,457.159967 L691.573839,448.205159 Z M682.024267,423.006109 C681.361147,423.006109 680.704492,423.059891 680.058843,423.166156 C679.622219,423.238018 679.326521,423.65023 679.398382,424.086859 C679.470243,424.523487 679.882451,424.819189 680.319075,424.747327 C680.878788,424.655207 681.448411,424.608552 682.024267,424.608552 C682.466765,424.608552 682.82548,424.249833 682.82548,423.807331 C682.82548,423.364828 682.466765,423.006109 682.024267,423.006109 Z M676.567303,424.313765 C672.574099,426.352093 670.006067,430.459642 670.006067,435.024436 C670.006067,435.466938 670.364782,435.825657 670.80728,435.825657 C671.249778,435.825657 671.608493,435.466938 671.608493,435.024436 C671.608493,431.067668 673.833887,427.508169 677.29583,425.741022 C677.689952,425.539843 677.846365,425.057252 677.645188,424.663126 C677.44401,424.269 676.961425,424.112586 676.567303,424.313765 L676.567303,424.313765 Z" id="sbx-icon-search-15" sketch:type="MSShapeGroup"></path>
        </g>
    </g>
</svg>