<?xml version="1.0" encoding="UTF-8" standalone="no"?>
<svg width="40px" height="40px" viewBox="0 0 40 40" version="1.1" xmlns="http://www.w3.org/2000/svg" xmlns:xlink="http://www.w3.org/1999/xlink" xmlns:sketch="http://www.bohemiancoding.com/sketch/ns">
    <!-- Generator: Sketch 3.4.4 (17249) - http://www.bohemiancoding.com/sketch -->
    <title>sbx-icon-search-8</title>
    <desc>Created with Sketch.</desc>
    <defs></defs>
    <g id="Page-1" stroke="none" stroke-width="1" fill="none" fill-rule="evenodd" sketch:type="MSPage">
        <g id="icon-search" sketch:type="MSArtboardGroup" transform="translate(-596.000000, -490.000000)" fill="#000000">
            <path d="M611.999277,521.998555 C620.835434,521.998555 627.998555,514.835434 627.998555,505.999277 C627.998555,497.163121 620.835434,490 611.999277,490 C603.163121,490 596,497.163121 596,505.999277 C596,514.835434 603.163121,521.998555 611.999277,521.998555 Z M611.999277,516.238815 C617.654418,516.238815 622.238815,511.654418 622.238815,505.999277 C622.238815,500.344137 617.654418,495.75974 611.999277,495.75974 C606.344137,495.75974 601.75974,500.344137 601.75974,505.999277 C601.75974,511.654418 606.344137,516.238815 611.999277,516.238815 Z M624.156574,522.802049 C622.874951,521.520427 622.878526,519.438931 624.158728,518.158728 C625.441541,516.875916 627.524639,516.879164 628.802049,518.156574 L635.040392,524.394916 C636.322014,525.676539 636.318439,527.758035 635.038237,529.038237 C633.755424,530.32105 631.672326,530.317802 630.394916,529.040392 L624.156574,522.802049 Z" id="sbx-icon-search-8" sketch:type="MSShapeGroup"></path>
        </g>
    </g>
</svg>