<?xml version="1.0" encoding="UTF-8" standalone="no"?>
<svg width="40px" height="40px" viewBox="0 0 40 40" version="1.1" xmlns="http://www.w3.org/2000/svg" xmlns:xlink="http://www.w3.org/1999/xlink" xmlns:sketch="http://www.bohemiancoding.com/sketch/ns">
    <!-- Generator: Sketch 3.4.4 (17249) - http://www.bohemiancoding.com/sketch -->
    <title>sbx-icon-search-20</title>
    <desc>Created with Sketch.</desc>
    <defs></defs>
    <g id="Page-1" stroke="none" stroke-width="1" fill="none" fill-rule="evenodd" sketch:type="MSPage">
        <g id="icon-search" sketch:type="MSArtboardGroup" transform="translate(-316.000000, -419.000000)" fill="#000000">
            <path d="M338.969035,443.036366 C337.598662,444.168713 335.841046,444.849057 333.924528,444.849057 C329.547932,444.849057 326,441.301124 326,436.924528 C326,432.547932 329.547932,429 333.924528,429 C338.301124,429 341.849057,432.547932 341.849057,436.924528 C341.849057,438.841046 341.168713,440.598662 340.036366,441.969035 L345.133353,447.066022 C345.427067,447.359736 345.428294,447.834714 345.131504,448.131504 C344.836768,448.426239 344.358514,448.425845 344.066022,448.133353 L338.969035,443.036366 Z M336,459 C347.045695,459 356,450.045695 356,439 C356,427.954305 347.045695,419 336,419 C324.954305,419 316,427.954305 316,439 C316,450.045695 324.954305,459 336,459 Z M336,457 C345.941125,457 354,448.941125 354,439 C354,429.058875 345.941125,421 336,421 C326.058875,421 318,429.058875 318,439 C318,448.941125 326.058875,457 336,457 Z M333.924528,443.339623 C337.467487,443.339623 340.339623,440.467487 340.339623,436.924528 C340.339623,433.38157 337.467487,430.509434 333.924528,430.509434 C330.38157,430.509434 327.509434,433.38157 327.509434,436.924528 C327.509434,440.467487 330.38157,443.339623 333.924528,443.339623 Z" id="sbx-icon-search-20" sketch:type="MSShapeGroup"></path>
        </g>
    </g>
</svg>