<?xml version="1.0" encoding="UTF-8" standalone="no"?>
<svg width="40px" height="40px" viewBox="0 0 40 40" version="1.1" xmlns="http://www.w3.org/2000/svg" xmlns:xlink="http://www.w3.org/1999/xlink" xmlns:sketch="http://www.bohemiancoding.com/sketch/ns">
    <!-- Generator: Sketch 3.4.4 (17249) - http://www.bohemiancoding.com/sketch -->
    <title>sbx-icon-search-23</title>
    <desc>Created with Sketch.</desc>
    <defs></defs>
    <g id="Page-1" stroke="none" stroke-width="1" fill="none" fill-rule="evenodd" sketch:type="MSPage">
        <g id="searchbox-icons" sketch:type="MSArtboardGroup" transform="translate(-660.000000, -263.000000)" fill="#000000">
            <path d="M681.727774,285.596709 C679.420485,287.696565 676.353896,288.976653 672.988326,288.976653 C665.815072,288.976653 660,283.161581 660,275.988326 C660,268.815072 665.815072,263 672.988326,263 C680.161581,263 685.976653,268.815072 685.976653,275.988326 C685.976653,279.353916 684.69655,282.420522 682.596671,284.727816 C684.541351,283.212222 687.359477,283.351752 689.139974,285.132249 L698.550545,294.542821 C700.48388,296.476156 700.478487,299.616103 698.547295,301.547295 C696.612166,303.482425 693.469801,303.477525 691.542821,301.550545 L682.132249,292.139974 C680.346159,290.353883 680.214732,287.537974 681.727774,285.596709 Z M672.988326,285.361743 C678.165121,285.361743 682.361743,281.165121 682.361743,275.988326 C682.361743,270.811532 678.165121,266.61491 672.988326,266.61491 C667.811532,266.61491 663.61491,270.811532 663.61491,275.988326 C663.61491,281.165121 667.811532,285.361743 672.988326,285.361743 Z M684.674918,290.33658 C683.942767,289.60443 683.939951,288.420195 684.680073,287.680073 C685.415071,286.945075 686.610033,286.94837 687.33658,287.674918 L696.44092,296.779257 C697.17307,297.511408 697.175886,298.695642 696.435764,299.435764 C695.700766,300.170762 694.505805,300.167467 693.779257,299.44092 L684.674918,290.33658 Z" id="sbx-icon-search-23" sketch:type="MSShapeGroup"></path>
        </g>
    </g>
</svg>