<?xml version="1.0" encoding="UTF-8" standalone="no"?>
<svg width="40px" height="40px" viewBox="0 0 40 40" version="1.1" xmlns="http://www.w3.org/2000/svg" xmlns:xlink="http://www.w3.org/1999/xlink" xmlns:sketch="http://www.bohemiancoding.com/sketch/ns">
    <!-- Generator: Sketch 3.4.4 (17249) - http://www.bohemiancoding.com/sketch -->
    <title>sbx-icon-search-14</title>
    <desc>Created with Sketch.</desc>
    <defs></defs>
    <g id="Page-1" stroke="none" stroke-width="1" fill="none" fill-rule="evenodd" sketch:type="MSPage">
        <g id="icon-search" sketch:type="MSArtboardGroup" transform="translate(-176.000000, -490.000000)" fill="#000000">
            <path d="M200.190872,518.600997 C197.725963,520.233557 194.770083,521.184293 191.592147,521.184293 C182.980842,521.184293 176,514.203451 176,505.592147 C176,496.980842 182.980842,490 191.592147,490 C200.203451,490 207.184293,496.980842 207.184293,505.592147 C207.184293,508.770083 206.233557,511.725963 204.600997,514.190872 L214.840905,524.43078 C216.01489,525.604765 216.020511,527.502551 214.839038,528.684023 L214.684023,528.839038 C213.509007,530.014055 211.604972,530.015097 210.43078,528.840905 L200.190872,518.600997 Z M191.592147,519.625079 C199.342321,519.625079 205.625079,513.342321 205.625079,505.592147 C205.625079,497.841972 199.342321,491.559215 191.592147,491.559215 C183.841972,491.559215 177.559215,497.841972 177.559215,505.592147 C177.559215,513.342321 183.841972,519.625079 191.592147,519.625079 Z M202.237611,518.442673 C201.847446,518.052509 201.847087,517.420287 202.240989,517.026385 L203.026385,516.240989 C203.418415,515.848959 204.054294,515.849232 204.442673,516.237611 L214.055076,525.850013 C214.44524,526.240178 214.445599,526.8724 214.051698,527.266302 L213.266302,528.051698 C212.874272,528.443728 212.238393,528.443455 211.850013,528.055076 L202.237611,518.442673 Z M191.592147,493.898037 C185.133668,493.898037 179.898037,499.133668 179.898037,505.592147 C179.898037,506.022712 180.247079,506.371754 180.677644,506.371754 C181.108209,506.371754 181.457251,506.022712 181.457251,505.592147 C181.457251,499.994799 185.994799,495.457251 191.592147,495.457251 C192.022712,495.457251 192.371754,495.108209 192.371754,494.677644 C192.371754,494.247079 192.022712,493.898037 191.592147,493.898037 Z" id="sbx-icon-search-14" sketch:type="MSShapeGroup"></path>
        </g>
    </g>
</svg>