<?xml version="1.0" encoding="UTF-8" standalone="no"?>
<svg width="43px" height="43px" viewBox="0 0 43 43" version="1.1" xmlns="http://www.w3.org/2000/svg" xmlns:xlink="http://www.w3.org/1999/xlink" xmlns:sketch="http://www.bohemiancoding.com/sketch/ns">
    <!-- Generator: Sketch 3.4.4 (17249) - http://www.bohemiancoding.com/sketch -->
    <title>sbx-icon-search-2</title>
    <desc>Created with Sketch.</desc>
    <defs></defs>
    <g id="Page-1" stroke="none" stroke-width="1" fill="none" fill-rule="evenodd" sketch:type="MSPage">
        <g id="icon-search" sketch:type="MSArtboardGroup" transform="translate(-455.000000, -560.000000)" fill="#000000">
            <path d="M481.689858,588.904414 C479.09346,591.01308 475.783135,592.276797 472.177654,592.276797 C463.838627,592.276797 457.07851,585.51668 457.07851,577.177654 C457.07851,568.838627 463.838627,562.07851 472.177654,562.07851 C480.51668,562.07851 487.276797,568.838627 487.276797,577.177654 C487.276797,581.058133 485.812955,584.596713 483.407356,587.27131 L494.557915,598.421869 C495.019888,598.883842 495.022588,599.63015 494.556741,600.095996 C494.09412,600.558618 493.337937,600.552493 492.882614,600.09717 L481.689858,588.904414 Z M481.432294,591.440174 C478.769215,593.171733 475.590907,594.177654 472.177654,594.177654 C462.788813,594.177654 455.177654,586.566494 455.177654,577.177654 C455.177654,567.788813 462.788813,560.177654 472.177654,560.177654 C481.566494,560.177654 489.177654,567.788813 489.177654,577.177654 C489.177654,580.869121 488.001064,584.285781 486.002445,587.073075 L496.141334,597.211964 C497.372821,598.443451 497.368291,600.444614 496.136825,601.67608 C494.902848,602.910057 492.9053,602.91318 491.672709,601.680589 L481.432294,591.440174 Z M472.177654,589.863623 C479.183921,589.863623 484.863623,584.183921 484.863623,577.177654 C484.863623,570.171386 479.183921,564.491684 472.177654,564.491684 C465.171386,564.491684 459.491684,570.171386 459.491684,577.177654 C459.491684,584.183921 465.171386,589.863623 472.177654,589.863623 Z M472.177654,588.683476 C465.823163,588.683476 460.671831,583.532144 460.671831,577.177654 C460.671831,570.823163 465.823163,565.671831 472.177654,565.671831 C478.532144,565.671831 483.683476,570.823163 483.683476,577.177654 C483.683476,583.532144 478.532144,588.683476 472.177654,588.683476 L472.177654,588.683476 Z" id="sbx-icon-search-2" sketch:type="MSShapeGroup"></path>
        </g>
    </g>
</svg>