<?xml version="1.0" encoding="UTF-8" standalone="no"?>
<svg width="40px" height="40px" viewBox="0 0 40 40" version="1.1" xmlns="http://www.w3.org/2000/svg" xmlns:xlink="http://www.w3.org/1999/xlink" xmlns:sketch="http://www.bohemiancoding.com/sketch/ns">
    <!-- Generator: Sketch 3.4.4 (17249) - http://www.bohemiancoding.com/sketch -->
    <title>sbx-icon-search-1</title>
    <desc>Created with Sketch.</desc>
    <defs></defs>
    <g id="Page-1" stroke="none" stroke-width="1" fill="none" fill-rule="evenodd" sketch:type="MSPage">
        <g id="icon-search" sketch:type="MSArtboardGroup" transform="translate(-526.000000, -562.000000)" fill="#000000">
            <path d="M553.598872,591.148696 C551.609016,592.792926 549.056862,593.780822 546.273973,593.780822 C539.918915,593.780822 534.767123,588.62903 534.767123,582.273973 C534.767123,575.918915 539.918915,570.767123 546.273973,570.767123 C552.62903,570.767123 557.780822,575.918915 557.780822,582.273973 C557.780822,585.056862 556.792926,587.609016 555.148696,589.598872 L562.541915,596.992092 C562.972759,597.422936 562.978071,598.116159 562.547115,598.547115 C562.119143,598.975087 561.424691,598.974514 560.992092,598.541915 L553.598872,591.148696 Z M546.273973,591.589041 C551.418543,591.589041 555.589041,587.418543 555.589041,582.273973 C555.589041,577.129402 551.418543,572.958904 546.273973,572.958904 C541.129402,572.958904 536.958904,577.129402 536.958904,582.273973 C536.958904,587.418543 541.129402,591.589041 546.273973,591.589041 Z M563.08656,592.399947 C564.982056,589.292036 566,585.719474 566,582 C566,570.954305 557.045695,562 546,562 C534.954305,562 526,570.954305 526,582 C526,593.045695 534.954305,602 546,602 C549.759675,602 553.368914,600.959881 556.499257,599.025593 C557.014135,598.707442 557.173613,598.032138 556.855462,597.51726 C556.537311,597.002382 555.862007,596.842903 555.347129,597.161055 C552.560557,598.882921 549.349749,599.808219 546,599.808219 C536.164792,599.808219 528.191781,591.835208 528.191781,582 C528.191781,572.164792 536.164792,564.191781 546,564.191781 C555.835208,564.191781 563.808219,572.164792 563.808219,582 C563.808219,585.313957 562.902645,588.492148 561.21534,591.258701 C560.900194,591.775424 561.063604,592.449787 561.580327,592.764933 C562.09705,593.08008 562.771413,592.916669 563.08656,592.399947 Z" id="sbx-icon-search-1" sketch:type="MSShapeGroup"></path>
        </g>
    </g>
</svg>