<?xml version="1.0" encoding="UTF-8" standalone="no"?>
<svg width="40px" height="40px" viewBox="0 0 40 40" version="1.1" xmlns="http://www.w3.org/2000/svg" xmlns:xlink="http://www.w3.org/1999/xlink" xmlns:sketch="http://www.bohemiancoding.com/sketch/ns">
    <!-- Generator: Sketch 3.4.4 (17249) - http://www.bohemiancoding.com/sketch -->
    <title>sbx-icon-search-10</title>
    <desc>Created with Sketch.</desc>
    <defs></defs>
    <g id="Page-1" stroke="none" stroke-width="1" fill="none" fill-rule="evenodd" sketch:type="MSPage">
        <g id="icon-search" sketch:type="MSArtboardGroup" transform="translate(-456.000000, -490.000000)" fill="#000000">
            <path d="M471.642584,521.285168 C480.281745,521.285168 487.285168,514.281745 487.285168,505.642584 C487.285168,497.003423 480.281745,490 471.642584,490 C463.003423,490 456,497.003423 456,505.642584 C456,514.281745 463.003423,521.285168 471.642584,521.285168 Z M471.642584,517.374522 C478.121955,517.374522 483.374522,512.121955 483.374522,505.642584 C483.374522,499.163214 478.121955,493.910646 471.642584,493.910646 C465.163214,493.910646 459.910646,499.163214 459.910646,505.642584 C459.910646,512.121955 465.163214,517.374522 471.642584,517.374522 Z M484.248333,521.566626 C483.333783,520.652076 483.32883,519.174249 484.25154,518.25154 C485.167861,517.335218 486.653603,517.33531 487.566626,518.248333 L495.315723,525.99743 C496.230274,526.911981 496.235227,528.389807 495.312517,529.312517 C494.396195,530.228838 492.910453,530.228746 491.99743,529.315723 L484.248333,521.566626 Z M474.328465,496.518174 C469.067378,495.303557 463.817782,498.583868 462.603164,503.844956 C462.45741,504.476286 462.851048,505.106238 463.482378,505.251992 C464.113709,505.397746 464.74366,505.004108 464.889414,504.372778 C465.812524,500.374352 469.802217,497.881315 473.800643,498.804424 C474.431973,498.950178 475.061925,498.556541 475.207679,497.925211 C475.353433,497.29388 474.959796,496.663929 474.328465,496.518174 Z" id="sbx-icon-search-10" sketch:type="MSShapeGroup"></path>
        </g>
    </g>
</svg>