<?xml version="1.0" encoding="UTF-8" standalone="no"?>
<svg width="40px" height="40px" viewBox="0 0 40 40" version="1.1" xmlns="http://www.w3.org/2000/svg" xmlns:xlink="http://www.w3.org/1999/xlink" xmlns:sketch="http://www.bohemiancoding.com/sketch/ns">
    <!-- Generator: Sketch 3.4.4 (17249) - http://www.bohemiancoding.com/sketch -->
    <title>sbx-icon-search-17</title>
    <desc>Created with Sketch.</desc>
    <defs></defs>
    <g id="Page-1" stroke="none" stroke-width="1" fill="none" fill-rule="evenodd" sketch:type="MSPage">
        <g id="icon-search" sketch:type="MSArtboardGroup" transform="translate(-526.000000, -419.000000)" fill="#000000">
            <path d="M561.566697,450.157815 L554.600875,443.191993 C556.233509,440.726951 557.184293,437.770888 557.184293,434.59275 C557.184293,425.981112 550.203451,419 541.592147,419 C532.980842,419 526,425.981112 526,434.59275 C526,443.204387 532.980842,450.185499 541.592147,450.185499 C544.770047,450.185499 547.725897,449.234747 550.19079,447.602158 L560.430953,457.842321 C561.605191,459.016559 563.509263,459.015553 564.684279,457.840537 L564.839294,457.685522 C566.020767,456.50405 566.015109,454.606227 564.841078,453.432196 L562.669249,451.260367 L562.670639,451.258977 L561.568108,450.156404 L561.566697,450.157815 Z M560.464187,451.260367 L554.442487,445.238668 C554.054093,444.850274 553.418202,444.849989 553.026172,445.242019 L552.240776,446.027415 C551.846874,446.421316 551.847245,447.053551 552.237425,447.44373 L558.259167,453.465472 L560.464187,451.260367 Z M561.566739,452.36292 L564.055262,454.851442 C564.445441,455.241622 564.445812,455.873856 564.051911,456.267758 L563.266515,457.053154 C562.874485,457.445184 562.238593,457.444899 561.850199,457.056505 L559.361719,454.568025 L561.566739,452.36292 Z M541.592147,448.626224 C549.342321,448.626224 555.625079,442.343224 555.625079,434.59275 C555.625079,426.842276 549.342321,420.559275 541.592147,420.559275 C533.841972,420.559275 527.559215,426.842276 527.559215,434.59275 C527.559215,442.343224 533.841972,448.626224 541.592147,448.626224 Z M541.592147,422.898187 C540.946909,422.898187 540.307962,422.950521 539.679723,423.053923 C539.254874,423.123849 538.967149,423.524957 539.037072,423.949823 C539.106996,424.374689 539.508088,424.662424 539.932938,424.592498 C540.477557,424.50286 541.03182,424.457462 541.592147,424.457462 C542.022712,424.457462 542.371754,424.108407 542.371754,423.677825 C542.371754,423.247243 542.022712,422.898187 541.592147,422.898187 Z M536.282339,424.170616 C532.396818,426.154033 529.898037,430.150928 529.898037,434.59275 C529.898037,435.023331 530.247079,435.372387 530.677644,435.372387 C531.108209,435.372387 531.457251,435.023331 531.457251,434.59275 C531.457251,430.742575 533.622633,427.278965 536.99122,425.559424 C537.374714,425.363664 537.526908,424.894074 537.331156,424.510566 C537.135404,424.127057 536.665832,423.974856 536.282339,424.170616 L536.282339,424.170616 Z" id="sbx-icon-search-17" sketch:type="MSShapeGroup"></path>
        </g>
    </g>
</svg>