<?xml version="1.0" encoding="UTF-8" standalone="no"?>
<svg width="40px" height="40px" viewBox="0 0 40 40" version="1.1" xmlns="http://www.w3.org/2000/svg" xmlns:xlink="http://www.w3.org/1999/xlink" xmlns:sketch="http://www.bohemiancoding.com/sketch/ns">
    <!-- Generator: Sketch 3.4.4 (17249) - http://www.bohemiancoding.com/sketch -->
    <title>sbx-icon-search-19</title>
    <desc>Created with Sketch.</desc>
    <defs></defs>
    <g id="Page-1" stroke="none" stroke-width="1" fill="none" fill-rule="evenodd" sketch:type="MSPage">
        <g id="icon-search" sketch:type="MSArtboardGroup" transform="translate(-386.000000, -419.000000)" fill="#000000">
            <path d="M422.190118,451.800227 L417.622401,447.23251 C416.843334,446.453443 415.570383,446.451375 414.786526,447.235231 L414.232074,447.789683 C413.450982,448.570775 413.446998,449.843205 414.229352,450.625558 L418.797231,455.193438 L422.190118,451.800227 Z M422.83305,452.443159 L423.855338,453.465447 C424.637692,454.247801 424.633708,455.52023 423.852617,456.301322 L423.298164,456.855774 C422.514308,457.639631 421.241356,457.637563 420.46229,456.858496 L419.440164,455.83637 L422.83305,452.443159 Z M409.855266,446.034308 C407.370558,447.867671 404.298923,448.951297 400.974218,448.951297 C392.704186,448.951297 386,442.246471 386,433.975649 C386,425.704826 392.704186,419 400.974218,419 C409.24425,419 415.948435,425.704826 415.948435,433.975649 C415.948435,437.300723 414.86488,440.372694 413.031641,442.85766 L415.544331,445.37035 C416.739837,445.167958 418.012112,445.52839 418.938341,446.454619 L424.494754,452.011032 C426.01052,453.526798 426.007929,455.98693 424.495854,457.499005 C422.980696,459.014164 420.528155,459.018179 419.007881,457.497905 L413.451468,451.941493 C412.528303,451.018327 412.168345,449.744866 412.369591,448.548632 L409.855266,446.034308 Z M410.460667,443.548989 C408.025327,445.962822 404.673866,447.453733 400.974218,447.453733 C393.531189,447.453733 387.497422,441.419389 387.497422,433.975649 C387.497422,426.531909 393.531189,420.497565 400.974218,420.497565 C408.417247,420.497565 414.451014,426.531909 414.451014,433.975649 C414.451014,437.676117 412.95987,441.028277 410.545731,443.463925 L410.460664,443.548992 Z M411.309179,445.394424 L412.379941,444.323662 L413.670657,445.614378 C413.9684,445.912121 413.972132,446.391127 413.674388,446.688871 C413.378705,446.984554 412.899789,446.985034 412.599895,446.68514 L411.309179,445.394424 Z M400.974218,445.207385 C407.176742,445.207385 412.204881,440.178765 412.204881,433.975649 C412.204881,427.772532 407.176742,422.743912 400.974218,422.743912 C394.771694,422.743912 389.743554,427.772532 389.743554,433.975649 C389.743554,440.178765 394.771694,445.207385 400.974218,445.207385 Z M400.974218,443.897016 C406.453114,443.897016 410.894637,439.455069 410.894637,433.975649 C410.894637,428.496229 406.453114,424.054281 400.974218,424.054281 C395.495321,424.054281 391.053798,428.496229 391.053798,433.975649 C391.053798,439.455069 395.495321,443.897016 400.974218,443.897016 Z" id="sbx-icon-search-19" sketch:type="MSShapeGroup"></path>
        </g>
    </g>
</svg>