<?xml version="1.0" encoding="UTF-8" standalone="no"?>
<svg width="40px" height="40px" viewBox="0 0 40 40" version="1.1" xmlns="http://www.w3.org/2000/svg" xmlns:xlink="http://www.w3.org/1999/xlink" xmlns:sketch="http://www.bohemiancoding.com/sketch/ns">
    <!-- Generator: Sketch 3.4.4 (17249) - http://www.bohemiancoding.com/sketch -->
    <title>sbx-icon-search-18</title>
    <desc>Created with Sketch.</desc>
    <defs></defs>
    <g id="Page-1" stroke="none" stroke-width="1" fill="none" fill-rule="evenodd" sketch:type="MSPage">
        <g id="icon-search" sketch:type="MSArtboardGroup" transform="translate(-456.000000, -419.000000)" fill="#000000">
            <path d="M486.776479,446.145838 L485.457302,444.82666 L481.82632,448.457643 L483.145516,449.776839 L486.776479,446.145838 Z M488.144243,447.513601 L494.179411,453.548769 C494.570901,453.940259 494.578691,454.5672 494.188176,454.957714 L491.957374,457.188516 C491.570725,457.575165 490.943499,457.574821 490.548429,457.179751 L484.51328,451.144603 L488.144243,447.513601 Z M480.034319,448.906291 C477.677833,450.268986 474.942125,451.048871 472.024267,451.048871 C463.174309,451.048871 456,443.874487 456,435.024436 C456,426.174384 463.174309,419 472.024267,419 C480.874225,419 488.048534,426.174384 488.048534,435.024436 C488.048534,437.942353 487.268642,440.678115 485.905937,443.034641 L494.866857,451.995561 C496.041377,453.170081 496.050134,455.065597 494.873719,456.242012 L493.241674,457.874057 C492.070944,459.044787 490.174658,459.046629 488.995223,457.867195 L480.034319,448.906291 Z M472.024267,449.446428 C479.98923,449.446428 486.446108,442.989482 486.446108,435.024436 C486.446108,427.059389 479.98923,420.602444 472.024267,420.602444 C464.059305,420.602444 457.602427,427.059389 457.602427,435.024436 C457.602427,442.989482 464.059305,449.446428 472.024267,449.446428 Z M472.024267,447.042762 C478.661736,447.042762 484.042467,441.661974 484.042467,435.024436 C484.042467,428.386897 478.661736,423.006109 472.024267,423.006109 C465.386798,423.006109 460.006067,428.386897 460.006067,435.024436 C460.006067,441.661974 465.386798,447.042762 472.024267,447.042762 Z M472.024267,445.640624 C477.887365,445.640624 482.640344,440.887595 482.640344,435.024436 C482.640344,429.161277 477.887365,424.408247 472.024267,424.408247 C466.16117,424.408247 461.40819,429.161277 461.40819,435.024436 C461.40819,440.887595 466.16117,445.640624 472.024267,445.640624 Z" id="sbx-icon-search-18" sketch:type="MSShapeGroup"></path>
        </g>
    </g>
</svg>