<?xml version="1.0" encoding="UTF-8" standalone="no"?>
<svg width="40px" height="40px" viewBox="0 0 40 40" version="1.1" xmlns="http://www.w3.org/2000/svg" xmlns:xlink="http://www.w3.org/1999/xlink" xmlns:sketch="http://www.bohemiancoding.com/sketch/ns">
    <!-- Generator: Sketch 3.4.4 (17249) - http://www.bohemiancoding.com/sketch -->
    <title>sbx-icon-search-22</title>
    <desc>Created with Sketch.</desc>
    <defs></defs>
    <g id="Page-1" stroke="none" stroke-width="1" fill="none" fill-rule="evenodd" sketch:type="MSPage">
        <g id="icon-search" sketch:type="MSArtboardGroup" transform="translate(-176.000000, -419.000000)" fill="#000000">
            <path d="M200.381915,444.484874 C198.67841,445.897964 196.484418,446.748479 194.090186,446.748479 C188.669884,446.748479 184.275862,442.389385 184.275862,437.01217 C184.275862,431.634956 188.669884,427.275862 194.090186,427.275862 C199.510487,427.275862 203.904509,431.634956 203.904509,437.01217 C203.904509,439.138142 203.217659,441.104966 202.052089,442.706165 L207.724138,448.333126 L205.99257,450.050929 L200.381915,444.484874 Z M196,459 C207.045695,459 216,450.045695 216,439 C216,427.954305 207.045695,419 196,419 C184.954305,419 176,427.954305 176,439 C176,450.045695 184.954305,459 196,459 Z M194.090186,444.314402 C198.155412,444.314402 201.450928,441.045081 201.450928,437.01217 C201.450928,432.979259 198.155412,429.709939 194.090186,429.709939 C190.02496,429.709939 186.729443,432.979259 186.729443,437.01217 C186.729443,441.045081 190.02496,444.314402 194.090186,444.314402 Z" id="sbx-icon-search-22" sketch:type="MSShapeGroup"></path>
        </g>
    </g>
</svg>