<?xml version="1.0" encoding="UTF-8" standalone="no"?>
<svg width="40px" height="40px" viewBox="0 0 40 40" version="1.1" xmlns="http://www.w3.org/2000/svg" xmlns:xlink="http://www.w3.org/1999/xlink" xmlns:sketch="http://www.bohemiancoding.com/sketch/ns">
    <!-- Generator: Sketch 3.4.4 (17249) - http://www.bohemiancoding.com/sketch -->
    <title>search-icon-20</title>
    <desc>Created with Sketch.</desc>
    <defs></defs>
    <g id="Page-1" stroke="none" stroke-width="1" fill="none" fill-rule="evenodd" sketch:type="MSPage">
        <g id="icon-search" sketch:type="MSArtboardGroup" transform="translate(-716.000000, -606.000000)" fill="#000000">
            <path d="M738.969035,630.036366 C737.598662,631.168713 735.841046,631.849057 733.924528,631.849057 C729.547932,631.849057 726,628.301124 726,623.924528 C726,619.547932 729.547932,616 733.924528,616 C738.301124,616 741.849057,619.547932 741.849057,623.924528 C741.849057,625.841046 741.168713,627.598662 740.036366,628.969035 L745.133353,634.066022 C745.427067,634.359736 745.428294,634.834714 745.131504,635.131504 C744.836768,635.426239 744.358514,635.425845 744.066022,635.133353 L738.969035,630.036366 Z M736,646 C747.045695,646 756,637.045695 756,626 C756,614.954305 747.045695,606 736,606 C724.954305,606 716,614.954305 716,626 C716,637.045695 724.954305,646 736,646 Z M736,644 C745.941125,644 754,635.941125 754,626 C754,616.058875 745.941125,608 736,608 C726.058875,608 718,616.058875 718,626 C718,635.941125 726.058875,644 736,644 Z M733.924528,630.339623 C737.467487,630.339623 740.339623,627.467487 740.339623,623.924528 C740.339623,620.38157 737.467487,617.509434 733.924528,617.509434 C730.38157,617.509434 727.509434,620.38157 727.509434,623.924528 C727.509434,627.467487 730.38157,630.339623 733.924528,630.339623 Z" id="search-icon-20" sketch:type="MSShapeGroup"></path>
        </g>
    </g>
</svg>