<?xml version="1.0" encoding="UTF-8" standalone="no"?>
<svg width="50px" height="50px" viewBox="0 0 50 50" version="1.1" xmlns="http://www.w3.org/2000/svg" xmlns:xlink="http://www.w3.org/1999/xlink" xmlns:sketch="http://www.bohemiancoding.com/sketch/ns">
    <!-- Generator: Sketch 3.4.4 (17249) - http://www.bohemiancoding.com/sketch -->
    <title>search-icon-18</title>
    <desc>Created with Sketch.</desc>
    <defs></defs>
    <g id="Page-1" stroke="none" stroke-width="1" fill="none" fill-rule="evenodd" sketch:type="MSPage">
        <g id="icon-search" sketch:type="MSArtboardGroup" transform="translate(-570.000000, -600.000000)" fill="#000000">
            <path d="M608.412374,633.880519 L606.765927,632.234073 L602.234073,636.765927 L603.880519,638.412374 L608.412374,633.880519 Z M610.11948,635.587626 L617.835593,643.303739 C618.222779,643.690925 618.225163,644.316294 617.828553,644.712903 L614.712903,647.828553 C614.321829,648.219627 613.689962,648.221817 613.303739,647.835593 L605.587626,640.11948 L610.11948,635.587626 Z M599.997421,637.325848 C597.05627,639.026626 593.641807,640 590,640 C578.954305,640 570,631.045695 570,620 C570,608.954305 578.954305,600 590,600 C601.045695,600 610,608.954305 610,620 C610,623.641807 609.026626,627.05627 607.325848,629.997421 L619.042868,641.714441 C620.214455,642.886028 620.221153,644.778847 619.044529,645.955471 L615.955471,649.044529 C614.784802,650.215198 612.890589,650.219016 611.714441,649.042868 L599.997421,637.325848 Z M590,638 C599.941125,638 608,629.941125 608,620 C608,610.058875 599.941125,602 590,602 C580.058875,602 572,610.058875 572,620 C572,629.941125 580.058875,638 590,638 Z M590,635 C598.284271,635 605,628.284271 605,620 C605,611.715729 598.284271,605 590,605 C581.715729,605 575,611.715729 575,620 C575,628.284271 581.715729,635 590,635 Z M590,633.25 C597.317773,633.25 603.25,627.317773 603.25,620 C603.25,612.682227 597.317773,606.75 590,606.75 C582.682227,606.75 576.75,612.682227 576.75,620 C576.75,627.317773 582.682227,633.25 590,633.25 Z" id="search-icon-18" sketch:type="MSShapeGroup"></path>
        </g>
    </g>
</svg>