<?xml version="1.0" encoding="UTF-8" standalone="no"?>
<svg width="52px" height="52px" viewBox="0 0 52 52" version="1.1" xmlns="http://www.w3.org/2000/svg" xmlns:xlink="http://www.w3.org/1999/xlink" xmlns:sketch="http://www.bohemiancoding.com/sketch/ns">
    <!-- Generator: Sketch 3.4.4 (17249) - http://www.bohemiancoding.com/sketch -->
    <title>search-icon-17</title>
    <desc>Created with Sketch.</desc>
    <defs></defs>
    <g id="Page-1" stroke="none" stroke-width="1" fill="none" fill-rule="evenodd" sketch:type="MSPage">
        <g id="icon-search" sketch:type="MSArtboardGroup" transform="translate(-503.000000, -600.000000)" fill="#000000">
            <path d="M548.62132,639.964466 L539.686414,631.02956 C541.780493,627.867828 543,624.076329 543,620 C543,608.954305 534.045695,600 523,600 C511.954305,600 503,608.954305 503,620 C503,631.045695 511.954305,640 523,640 C527.076329,640 530.867828,638.780493 534.02956,636.686414 L547.775853,650.432707 C548.942098,651.598952 550.841148,651.597452 552.013371,650.425229 L553.425229,649.013371 C554.600897,647.837703 554.6008,645.943946 553.432707,644.775853 L550.035534,641.37868 L550.037319,641.376894 L548.623106,639.962681 L548.62132,639.964466 Z M547.207107,641.37868 L539.278475,633.450048 C538.899114,633.070687 538.257616,633.068286 537.863433,633.462469 L536.462469,634.863433 C536.062235,635.263666 536.062725,635.891152 536.450048,636.278475 L544.37868,644.207107 L547.207107,641.37868 Z M548.62132,642.792893 L552.017989,646.189562 C552.405313,646.576885 552.405802,647.204371 552.005568,647.604605 L550.604605,649.005568 C550.210421,649.399752 549.568923,649.39735 549.189562,649.017989 L545.792893,645.62132 L548.62132,642.792893 Z M523,638 C532.941125,638 541,629.941125 541,620 C541,610.058875 532.941125,602 523,602 C513.058875,602 505,610.058875 505,620 C505,629.941125 513.058875,638 523,638 Z M523,605 C522.172355,605 521.35278,605.067125 520.54694,605.199753 C520.001987,605.289444 519.632924,605.803924 519.722614,606.348877 C519.812304,606.893831 520.326785,607.262894 520.871738,607.173204 C521.570319,607.058229 522.28127,607 523,607 C523.552285,607 524,606.552285 524,606 C524,605.447715 523.552285,605 523,605 Z M516.189125,606.632077 C511.205179,609.176102 508,614.302709 508,620 C508,620.552285 508.447715,621 509,621 C509.552285,621 510,620.552285 510,620 C510,615.061583 512.777529,610.618993 517.098405,608.413428 C517.590311,608.162338 517.785531,607.560019 517.53444,607.068113 C517.28335,606.576207 516.681031,606.380987 516.189125,606.632077 L516.189125,606.632077 Z" id="search-icon-17" sketch:type="MSShapeGroup"></path>
        </g>
    </g>
</svg>