<?xml version="1.0" encoding="UTF-8" standalone="no"?>
<svg width="63px" height="63px" viewBox="0 0 63 63" version="1.1" xmlns="http://www.w3.org/2000/svg" xmlns:xlink="http://www.w3.org/1999/xlink" xmlns:sketch="http://www.bohemiancoding.com/sketch/ns">
    <!-- Generator: Sketch 3.4.4 (17249) - http://www.bohemiancoding.com/sketch -->
    <title>search-icon-8</title>
    <desc>Created with Sketch.</desc>
    <defs></defs>
    <g id="Page-1" stroke="none" stroke-width="1" fill="none" fill-rule="evenodd" sketch:type="MSPage">
        <g id="icon-search" sketch:type="MSArtboardGroup" transform="translate(-304.000000, -505.000000)" fill="#000000">
            <path d="M329,555 C342.807119,555 354,543.807119 354,530 C354,516.192881 342.807119,505 329,505 C315.192881,505 304,516.192881 304,530 C304,543.807119 315.192881,555 329,555 Z M329,546 C337.836556,546 345,538.836556 345,530 C345,521.163444 337.836556,514 329,514 C320.163444,514 313,521.163444 313,530 C313,538.836556 320.163444,546 329,546 Z M347.996633,556.255517 C345.994007,554.252891 345.999593,551.000407 348,549 C350.004485,546.995515 353.259473,547.00059 355.255517,548.996633 L365.003367,558.744483 C367.005993,560.747109 367.000407,563.999593 365,566 C362.995515,568.004485 359.740527,567.99941 357.744483,566.003367 L347.996633,556.255517 Z" id="search-icon-8" sketch:type="MSShapeGroup"></path>
        </g>
    </g>
</svg>