<?xml version="1.0" encoding="UTF-8" standalone="no"?>
<svg width="75px" height="76px" viewBox="0 0 75 76" version="1.1" xmlns="http://www.w3.org/2000/svg" xmlns:xlink="http://www.w3.org/1999/xlink" xmlns:sketch="http://www.bohemiancoding.com/sketch/ns">
    <!-- Generator: Sketch 3.4.4 (17249) - http://www.bohemiancoding.com/sketch -->
    <title>search-icon-2</title>
    <desc>Created with Sketch.</desc>
    <defs></defs>
    <g id="Page-1" stroke="none" stroke-width="1" fill="none" fill-rule="evenodd" sketch:type="MSPage">
        <g id="icon-search" sketch:type="MSArtboardGroup" transform="translate(-391.000000, -390.000000)" fill="#000000">
            <path d="M438.639525,441.746219 C433.824738,445.65655 427.68604,448 421,448 C405.536027,448 393,435.463973 393,420 C393,404.536027 405.536027,392 421,392 C436.463973,392 449,404.536027 449,420 C449,427.195999 446.285437,433.757977 441.824471,438.717776 L462.502176,459.395482 C463.358864,460.25217 463.363871,461.636129 462.5,462.5 C461.64211,463.35789 460.252881,463.359575 459.395482,462.502176 L438.639525,441.746219 Z M438.612015,444.288792 C433.666163,447.881281 427.580508,450 421,450 C404.431458,450 391,436.568542 391,420 C391,403.431458 404.431458,390 421,390 C437.568542,390 451,403.431458 451,420 C451,427.092904 448.538484,433.610891 444.423093,438.746317 L464.006438,458.329662 C465.570481,459.893704 465.564409,462.435591 464,464 C462.432401,465.567599 459.889977,465.566754 458.329662,464.006438 L438.612015,444.288792 Z M421,444.25 C434.392905,444.25 445.25,433.392905 445.25,420 C445.25,406.607095 434.392905,395.75 421,395.75 C407.607095,395.75 396.75,406.607095 396.75,420 C396.75,433.392905 407.607095,444.25 421,444.25 Z M421,443.260204 C408.153744,443.260204 397.739796,432.846256 397.739796,420 C397.739796,407.153744 408.153744,396.739796 421,396.739796 C433.846256,396.739796 444.260204,407.153744 444.260204,420 C444.260204,432.846256 433.846256,443.260204 421,443.260204 L421,443.260204 Z" id="search-icon-2" sketch:type="MSShapeGroup"></path>
        </g>
    </g>
</svg>