<?xml version="1.0" encoding="UTF-8" standalone="no"?>
<svg width="73px" height="73px" viewBox="0 0 73 73" version="1.1" xmlns="http://www.w3.org/2000/svg" xmlns:xlink="http://www.w3.org/1999/xlink" xmlns:sketch="http://www.bohemiancoding.com/sketch/ns">
    <!-- Generator: Sketch 3.4.4 (17249) - http://www.bohemiancoding.com/sketch -->
    <title>search-icon-1</title>
    <desc>Created with Sketch.</desc>
    <defs></defs>
    <g id="Page-1" stroke="none" stroke-width="1" fill="none" fill-rule="evenodd" sketch:type="MSPage">
        <g id="icon-search" sketch:type="MSArtboardGroup" transform="translate(-302.000000, -391.000000)" fill="#000000">
            <path d="M352.367942,444.196369 C348.736454,447.19709 344.078773,449 339,449 C327.40202,449 318,439.59798 318,428 C318,416.40202 327.40202,407 339,407 C350.59798,407 360,416.40202 360,428 C360,433.078773 358.19709,437.736454 355.196369,441.367942 L368.703386,454.874959 C369.481728,455.653301 369.484979,456.911991 368.698485,457.698485 C367.917436,458.479533 366.650061,458.478489 365.874959,457.703386 L352.367942,444.196369 Z M339,445 C348.388841,445 356,437.388841 356,428 C356,418.611159 348.388841,411 339,411 C329.611159,411 322,418.611159 322,428 C322,437.388841 329.611159,445 339,445 Z M369.682971,446.479902 C373.142252,440.807967 375,434.28804 375,427.5 C375,407.341607 358.658393,391 338.5,391 C318.341607,391 302,407.341607 302,427.5 C302,447.658393 318.341607,464 338.5,464 C345.361406,464 351.948269,462.101783 357.661143,458.571708 C358.600796,457.991082 358.891844,456.758652 358.311218,455.819 C357.730592,454.879347 356.498163,454.588299 355.55851,455.168925 C350.473017,458.311331 344.613291,460 338.5,460 C320.550746,460 306,445.449254 306,427.5 C306,409.550746 320.550746,395 338.5,395 C356.449254,395 371,409.550746 371,427.5 C371,433.547972 369.347328,439.34817 366.267996,444.397129 C365.692854,445.340148 365.991078,446.570861 366.934097,447.146003 C367.877116,447.721145 369.107829,447.422922 369.682971,446.479902 Z" id="search-icon-1" sketch:type="MSShapeGroup"></path>
        </g>
    </g>
</svg>