<?xml version="1.0" encoding="UTF-8" standalone="no"?>
<svg width="50px" height="50px" viewBox="0 0 50 50" version="1.1" xmlns="http://www.w3.org/2000/svg" xmlns:xlink="http://www.w3.org/1999/xlink" xmlns:sketch="http://www.bohemiancoding.com/sketch/ns">
    <!-- Generator: Sketch 3.4.4 (17249) - http://www.bohemiancoding.com/sketch -->
    <title>search-icon-15</title>
    <desc>Created with Sketch.</desc>
    <defs></defs>
    <g id="Page-1" stroke="none" stroke-width="1" fill="none" fill-rule="evenodd" sketch:type="MSPage">
        <g id="icon-search" sketch:type="MSArtboardGroup" transform="translate(-371.000000, -600.000000)" fill="#000000">
            <path d="M400.997421,637.325848 C398.05627,639.026626 394.641807,640 391,640 C379.954305,640 371,631.045695 371,620 C371,608.954305 379.954305,600 391,600 C402.045695,600 411,608.954305 411,620 C411,623.641807 410.026626,627.05627 408.325848,629.997421 L420.042868,641.714441 C421.214455,642.886028 421.221153,644.778847 420.044529,645.955471 L416.955471,649.044529 C415.784802,650.215198 413.890589,650.219016 412.714441,649.042868 L400.997421,637.325848 Z M391,638 C400.941125,638 409,629.941125 409,620 C409,610.058875 400.941125,602 391,602 C381.058875,602 373,610.058875 373,620 C373,629.941125 381.058875,638 391,638 Z M402.918949,636.450803 L407.450803,631.918949 L418.813576,643.281722 C419.200577,643.668723 419.202811,644.293942 418.806201,644.690551 L415.690551,647.806201 C415.299477,648.197275 414.65978,648.191634 414.281722,647.813576 L402.918949,636.450803 Z M391,605 C390.172355,605 389.35278,605.067125 388.54694,605.199753 C388.001987,605.289444 387.632924,605.803924 387.722614,606.348877 C387.812304,606.893831 388.326785,607.262894 388.871738,607.173204 C389.570319,607.058229 390.28127,607 391,607 C391.552285,607 392,606.552285 392,606 C392,605.447715 391.552285,605 391,605 Z M384.189125,606.632077 C379.205179,609.176102 376,614.302709 376,620 C376,620.552285 376.447715,621 377,621 C377.552285,621 378,620.552285 378,620 C378,615.061583 380.777529,610.618993 385.098405,608.413428 C385.590311,608.162338 385.785531,607.560019 385.53444,607.068113 C385.28335,606.576207 384.681031,606.380987 384.189125,606.632077 L384.189125,606.632077 Z" id="search-icon-15" sketch:type="MSShapeGroup"></path>
        </g>
    </g>
</svg>