<?xml version="1.0" encoding="UTF-8" standalone="no"?>
<svg width="20px" height="20px" viewBox="0 0 20 20" version="1.1" xmlns="http://www.w3.org/2000/svg" xmlns:xlink="http://www.w3.org/1999/xlink" xmlns:sketch="http://www.bohemiancoding.com/sketch/ns">
    <!-- Generator: Sketch 3.4.4 (17249) - http://www.bohemiancoding.com/sketch -->
    <title>search-icon</title>
    <desc>Created with Sketch.</desc>
    <defs></defs>
    <g id="Page-1" stroke="none" stroke-width="1" fill="none" fill-rule="evenodd" sketch:type="MSPage">
        <g id="icon-search" sketch:type="MSArtboardGroup" transform="translate(-875.000000, -750.000000)" fill="#FFFFFF">
            <g id="Rectangle-415-+-google-+-Google" sketch:type="MSLayerGroup" transform="translate(254.000000, 698.000000)">
                <g id="google" transform="translate(50.000000, 43.000000)" sketch:type="MSShapeGroup">
                    <path d="M582.27108,21.5464123 C581.089221,22.4578649 579.607922,23 578,23 C574.134007,23 571,19.8659932 571,16 C571,12.1340068 574.134007,9 578,9 C581.865993,9 585,12.1340068 585,16 C585,17.607169 584.458372,19.0878341 583.547692,20.2694202 L589.806208,26.5279362 C590.157565,26.8792934 590.159033,27.4474884 589.803995,27.8025256 C589.451416,28.1551047 588.879301,28.1546331 588.529406,27.8047382 L582.27108,21.5464123 Z M578,21 C580.761424,21 583,18.7614237 583,16 C583,13.2385763 580.761424,11 578,11 C575.238576,11 573,13.2385763 573,16 C573,18.7614237 575.238576,21 578,21 Z" id="search-icon"></path>
                </g>
            </g>
        </g>
    </g>
</svg>