<?xml version="1.0" encoding="UTF-8" standalone="no"?>
<svg width="51px" height="50px" viewBox="0 0 51 50" version="1.1" xmlns="http://www.w3.org/2000/svg" xmlns:xlink="http://www.w3.org/1999/xlink" xmlns:sketch="http://www.bohemiancoding.com/sketch/ns">
    <!-- Generator: Sketch 3.4.4 (17249) - http://www.bohemiancoding.com/sketch -->
    <title>search-icon-21</title>
    <desc>Created with Sketch.</desc>
    <defs></defs>
    <g id="Page-1" stroke="none" stroke-width="1" fill="none" fill-rule="evenodd" sketch:type="MSPage">
        <g id="icon-search" sketch:type="MSArtboardGroup" transform="translate(-713.000000, -601.000000)" fill="#000000">
            <path d="M746.936781,635.344569 C746.957135,635.369175 746.978834,635.393048 747.001878,635.416091 L762.083909,650.498122 C762.478017,650.892231 763.109476,650.890524 763.5,650.5 C763.893247,650.106753 763.889684,649.47547 763.498122,649.083909 L748.416091,634.001878 C748.376081,633.961867 748.333624,633.925936 748.289221,633.894077 C751.228424,630.412458 753,625.913116 753,621 C753,609.954305 744.045695,601 733,601 C721.954305,601 713,609.954305 713,621 C713,632.045695 721.954305,641 733,641 C738.419134,641 743.334874,638.844711 746.936781,635.344569 Z M733,639 C742.941125,639 751,630.941125 751,621 C751,611.058875 742.941125,603 733,603 C723.058875,603 715,611.058875 715,621 C715,630.941125 723.058875,639 733,639 Z M733,606 C724.715729,606 718,612.715729 718,621 C718,621.552285 718.447715,622 719,622 C719.552285,622 720,621.552285 720,621 C720,613.820298 725.820298,608 733,608 C733.552285,608 734,607.552285 734,607 C734,606.447715 733.552285,606 733,606 Z" id="search-icon-21" sketch:type="MSShapeGroup"></path>
        </g>
    </g>
</svg>