<?xml version="1.0" encoding="UTF-8" standalone="no"?>
<svg width="54px" height="54px" viewBox="0 0 54 54" version="1.1" xmlns="http://www.w3.org/2000/svg" xmlns:xlink="http://www.w3.org/1999/xlink" xmlns:sketch="http://www.bohemiancoding.com/sketch/ns">
    <!-- Generator: Sketch 3.4.4 (17249) - http://www.bohemiancoding.com/sketch -->
    <title>search-icon-19</title>
    <desc>Created with Sketch.</desc>
    <defs></defs>
    <g id="Page-1" stroke="none" stroke-width="1" fill="none" fill-rule="evenodd" sketch:type="MSPage">
        <g id="icon-search" sketch:type="MSArtboardGroup" transform="translate(-636.000000, -598.000000)" fill="#000000">
            <path d="M684.336588,641.804734 L677.756966,635.225112 C676.978274,634.446419 675.713494,634.44336 674.935289,635.221565 L673.221565,636.935289 C672.442635,637.714219 672.444948,638.976802 673.225112,639.756966 L679.804734,646.336588 L684.336588,641.804734 Z M685.195266,642.663412 L687.039519,644.507665 C687.819683,645.287829 687.821997,646.550412 687.043066,647.329342 L685.329342,649.043066 C684.551137,649.821271 683.286358,649.818212 682.507665,649.039519 L680.663412,647.195266 L685.195266,642.663412 Z M667.861746,634.104386 C664.543105,636.552827 660.440555,638 656,638 C644.954305,638 636,629.045695 636,618 C636,606.954305 644.954305,598 656,598 C667.045695,598 676,606.954305 676,618 C676,622.440555 674.552827,626.543105 672.104386,629.861746 L675.095979,632.853339 C676.481465,632.406806 678.061131,632.732703 679.155165,633.826738 L688.252952,642.924525 C689.814116,644.485689 689.819888,647.011064 688.246329,648.584624 L686.584624,650.246329 C685.019802,651.811151 682.480811,651.809238 680.924525,650.252952 L671.826738,641.155165 C670.727739,640.056166 670.399532,638.479342 670.850469,637.093109 L667.861746,634.104386 Z M668.727926,630.727918 C665.470566,633.98528 660.970565,636 656,636 C646.058875,636 638,627.941125 638,618 C638,608.058875 646.058875,600 656,600 C665.941125,600 674,608.058875 674,618 C674,622.970561 671.985283,627.470559 668.727926,630.727918 L668.727926,630.727918 Z M669.803791,633.249859 L671.233932,631.819719 L672.970839,633.556626 C673.361211,633.946997 673.360275,634.580851 672.970979,634.970147 L672.95422,634.986906 C672.563925,635.3772 671.928053,635.374121 671.540699,634.986767 L669.803791,633.249859 Z M656,633 C664.284271,633 671,626.284271 671,618 C671,609.715729 664.284271,603 656,603 C647.715729,603 641,609.715729 641,618 C641,626.284271 647.715729,633 656,633 Z M656,631.25 C663.317773,631.25 669.25,625.317773 669.25,618 C669.25,610.682227 663.317773,604.75 656,604.75 C648.682227,604.75 642.75,610.682227 642.75,618 C642.75,625.317773 648.682227,631.25 656,631.25 Z" id="search-icon-19" sketch:type="MSShapeGroup"></path>
        </g>
    </g>
</svg>