<?xml version="1.0" encoding="UTF-8" standalone="no"?>
<svg width="50px" height="50px" viewBox="0 0 50 50" version="1.1" xmlns="http://www.w3.org/2000/svg" xmlns:xlink="http://www.w3.org/1999/xlink" xmlns:sketch="http://www.bohemiancoding.com/sketch/ns">
    <!-- Generator: Sketch 3.4.4 (17249) - http://www.bohemiancoding.com/sketch -->
    <title>search-icon-16</title>
    <desc>Created with Sketch.</desc>
    <defs></defs>
    <g id="Page-1" stroke="none" stroke-width="1" fill="none" fill-rule="evenodd" sketch:type="MSPage">
        <g id="icon-search" sketch:type="MSArtboardGroup" transform="translate(-437.000000, -600.000000)" fill="#000000">
            <path d="M466.997421,637.325848 C464.05627,639.026626 460.641807,640 457,640 C445.954305,640 437,631.045695 437,620 C437,608.954305 445.954305,600 457,600 C468.045695,600 477,608.954305 477,620 C477,623.641807 476.026626,627.05627 474.325848,629.997421 L484.630919,640.302491 C486.582304,642.253876 486.583076,645.416924 484.628796,647.371204 L484.371204,647.628796 C482.418647,649.581353 479.257143,649.58557 477.302491,647.630919 L466.997421,637.325848 Z M457,638 C466.941125,638 475,629.941125 475,620 C475,610.058875 466.941125,602 457,602 C447.058875,602 439,610.058875 439,620 C439,629.941125 447.058875,638 457,638 Z M457,632 C463.627417,632 469,626.627417 469,620 C469,613.372583 463.627417,608 457,608 C450.372583,608 445,613.372583 445,620 C445,626.627417 450.372583,632 457,632 Z M457,630 C462.522847,630 467,625.522847 467,620 C467,614.477153 462.522847,610 457,610 C451.477153,610 447,614.477153 447,620 C447,625.522847 451.477153,630 457,630 Z M468.933623,636.465477 L473.465477,631.933623 L483.266159,641.734305 C484.520119,642.988265 484.519619,645.021838 483.270728,646.270728 C482.019291,647.522165 479.996381,647.528236 478.734305,646.266159 L468.933623,636.465477 Z" id="search-icon-16" sketch:type="MSShapeGroup"></path>
        </g>
    </g>
</svg>