<?xml version="1.0" encoding="UTF-8" standalone="no"?>
<svg width="67px" height="67px" viewBox="0 0 67 67" version="1.1" xmlns="http://www.w3.org/2000/svg" xmlns:xlink="http://www.w3.org/1999/xlink" xmlns:sketch="http://www.bohemiancoding.com/sketch/ns">
    <!-- Generator: Sketch 3.4.4 (17249) - http://www.bohemiancoding.com/sketch -->
    <title>search-icon-6</title>
    <desc>Created with Sketch.</desc>
    <defs></defs>
    <g id="Page-1" stroke="none" stroke-width="1" fill="none" fill-rule="evenodd" sketch:type="MSPage">
        <g id="icon-search" sketch:type="MSArtboardGroup" transform="translate(-768.000000, -393.000000)" fill="#000000">
            <path d="M815.382672,447.45374 C810.478577,450.946045 804.479152,453 798,453 C781.431458,453 768,439.568542 768,423 C768,406.431458 781.431458,393 798,393 C814.568542,393 828,406.431458 828,423 C828,429.479152 825.946045,435.478577 822.45374,440.382672 L833.523048,451.45198 C835.47449,453.403422 835.46956,456.572264 833.520912,458.520912 C831.568291,460.473534 828.402688,460.473756 826.445362,458.516429 L815.382672,447.45374 Z M798,448 C811.807119,448 823,436.807119 823,423 C823,409.192881 811.807119,398 798,398 C784.192881,398 773,409.192881 773,423 C773,436.807119 784.192881,448 798,448 Z M798,403.5 C787.230447,403.5 778.5,412.230447 778.5,423 C778.5,423.828427 779.171573,424.5 780,424.5 C780.828427,424.5 781.5,423.828427 781.5,423 C781.5,413.887302 788.887302,406.5 798,406.5 C798.828427,406.5 799.5,405.828427 799.5,405 C799.5,404.171573 798.828427,403.5 798,403.5 Z" id="search-icon-6" sketch:type="MSShapeGroup"></path>
        </g>
    </g>
</svg>