<?xml version="1.0" encoding="UTF-8" standalone="no"?>
<svg width="58px" height="58px" viewBox="0 0 58 58" version="1.1" xmlns="http://www.w3.org/2000/svg" xmlns:xlink="http://www.w3.org/1999/xlink" xmlns:sketch="http://www.bohemiancoding.com/sketch/ns">
    <!-- Generator: Sketch 3.4.4 (17249) - http://www.bohemiancoding.com/sketch -->
    <title>search-icon-22</title>
    <desc>Created with Sketch.</desc>
    <defs></defs>
    <g id="Page-1" stroke="none" stroke-width="1" fill="none" fill-rule="evenodd" sketch:type="MSPage">
        <g id="icon-search" sketch:type="MSArtboardGroup" transform="translate(-790.000000, -597.000000)" fill="#000000">
            <path d="M825.353777,633.953067 C822.883694,636.002048 819.702406,637.235294 816.230769,637.235294 C808.371332,637.235294 802,630.914608 802,623.117647 C802,615.320686 808.371332,609 816.230769,609 C824.090206,609 830.461538,615.320686 830.461538,623.117647 C830.461538,626.200306 829.465605,629.0522 827.775529,631.373939 L836,639.533032 L833.489227,642.023847 L825.353777,633.953067 Z M819,655 C835.016258,655 848,642.016258 848,626 C848,609.983742 835.016258,597 819,597 C802.983742,597 790,609.983742 790,626 C790,642.016258 802.983742,655 819,655 Z M816.230769,633.705882 C822.125347,633.705882 826.903846,628.965368 826.903846,623.117647 C826.903846,617.269926 822.125347,612.529412 816.230769,612.529412 C810.336192,612.529412 805.557692,617.269926 805.557692,623.117647 C805.557692,628.965368 810.336192,633.705882 816.230769,633.705882 Z" id="search-icon-22" sketch:type="MSShapeGroup"></path>
        </g>
    </g>
</svg>