<?xml version="1.0" encoding="UTF-8" standalone="no"?>
<svg width="52px" height="52px" viewBox="0 0 52 52" version="1.1" xmlns="http://www.w3.org/2000/svg" xmlns:xlink="http://www.w3.org/1999/xlink" xmlns:sketch="http://www.bohemiancoding.com/sketch/ns">
    <!-- Generator: Sketch 3.4.4 (17249) - http://www.bohemiancoding.com/sketch -->
    <title>search-icon-10</title>
    <desc>Created with Sketch.</desc>
    <defs></defs>
    <g id="Page-1" stroke="none" stroke-width="1" fill="none" fill-rule="evenodd" sketch:type="MSPage">
        <g id="icon-search" sketch:type="MSArtboardGroup" transform="translate(-459.000000, -511.000000)" fill="#000000">
            <path d="M479,551 C490.045695,551 499,542.045695 499,531 C499,519.954305 490.045695,511 479,511 C467.954305,511 459,519.954305 459,531 C459,542.045695 467.954305,551 479,551 Z M479,546 C487.284271,546 494,539.284271 494,531 C494,522.715729 487.284271,516 479,516 C470.715729,516 464,522.715729 464,531 C464,539.284271 470.715729,546 479,546 Z M495.117221,551.359861 C493.947912,550.190553 493.952131,548.290509 495.12132,547.12132 C496.292893,545.949747 498.192506,545.949865 499.359861,547.117221 L509.267556,557.024915 C510.436864,558.194224 510.432645,560.094267 509.263456,561.263456 C508.091883,562.435029 506.192271,562.434911 505.024915,561.267556 L495.117221,551.359861 Z M482.434063,519.333884 C475.707442,517.780921 468.995512,521.975 467.442549,528.701622 C467.256194,529.508817 467.759483,530.314248 468.566678,530.500604 C469.373872,530.686959 470.179304,530.18367 470.365659,529.376475 C471.545911,524.264243 476.646978,521.076743 481.75921,522.256995 C482.566405,522.44335 483.371836,521.940061 483.558192,521.132866 C483.744547,520.325672 483.241258,519.52024 482.434063,519.333884 Z" id="search-icon-10" sketch:type="MSShapeGroup"></path>
        </g>
    </g>
</svg>