<?xml version="1.0" encoding="UTF-8" standalone="no"?>
<svg width="77px" height="79px" viewBox="0 0 77 79" version="1.1" xmlns="http://www.w3.org/2000/svg" xmlns:xlink="http://www.w3.org/1999/xlink" xmlns:sketch="http://www.bohemiancoding.com/sketch/ns">
    <!-- Generator: Sketch 3.4.4 (17249) - http://www.bohemiancoding.com/sketch -->
    <title>search-icon-5</title>
    <desc>Created with Sketch.</desc>
    <defs></defs>
    <g id="Page-1" stroke="none" stroke-width="1" fill="none" fill-rule="evenodd" sketch:type="MSPage">
        <g id="icon-search" sketch:type="MSArtboardGroup" transform="translate(-672.000000, -388.000000)" fill="#000000">
            <path d="M720.275222,441.792989 C715.214956,445.685544 708.877763,448 702,448 C685.431458,448 672,434.568542 672,418 C672,401.431458 685.431458,388 702,388 C718.568542,388 732,401.431458 732,418 C732,425.898199 728.947816,433.083523 723.958593,438.440826 L726.544417,441.02665 L727.891499,439.679569 C728.671215,438.899852 729.938202,438.902668 730.717981,439.682447 L748.353087,457.317553 C749.134393,458.098859 749.132406,459.367594 748.355965,460.144035 L742.144035,466.355965 C741.364318,467.135682 740.097332,467.132866 739.317553,466.353087 L721.682447,448.717981 C720.901141,447.936675 720.903128,446.66794 721.679569,445.891499 L723.02665,444.544417 L720.275222,441.792989 Z M702,443 C715.807119,443 727,431.807119 727,418 C727,404.192881 715.807119,393 702,393 C688.192881,393 677,404.192881 677,418 C677,431.807119 688.192881,443 702,443 Z" id="search-icon-5" sketch:type="MSShapeGroup"></path>
        </g>
    </g>
</svg>