<?xml version="1.0" encoding="UTF-8" standalone="no"?>
<svg width="52px" height="52px" viewBox="0 0 52 52" version="1.1" xmlns="http://www.w3.org/2000/svg" xmlns:xlink="http://www.w3.org/1999/xlink" xmlns:sketch="http://www.bohemiancoding.com/sketch/ns">
    <!-- Generator: Sketch 3.4.4 (17249) - http://www.bohemiancoding.com/sketch -->
    <title>search-icon-14</title>
    <desc>Created with Sketch.</desc>
    <defs></defs>
    <g id="Page-1" stroke="none" stroke-width="1" fill="none" fill-rule="evenodd" sketch:type="MSPage">
        <g id="icon-search" sketch:type="MSArtboardGroup" transform="translate(-304.000000, -600.000000)" fill="#000000">
            <path d="M335.02956,636.686414 C331.867828,638.780493 328.076329,640 324,640 C312.954305,640 304,631.045695 304,620 C304,608.954305 312.954305,600 324,600 C335.045695,600 344,608.954305 344,620 C344,624.076329 342.780493,627.867828 340.686414,631.02956 L354.432707,644.775853 C355.6008,645.943946 355.600897,647.837703 354.425229,649.013371 L353.013371,650.425229 C351.841148,651.597452 349.942098,651.598952 348.775853,650.432707 L335.02956,636.686414 Z M324,638 C333.941125,638 342,629.941125 342,620 C342,610.058875 333.941125,602 324,602 C314.058875,602 306,610.058875 306,620 C306,629.941125 314.058875,638 324,638 Z M337.450048,636.278475 C337.062725,635.891152 337.062235,635.263666 337.462469,634.863433 L338.863433,633.462469 C339.257616,633.068286 339.899114,633.070687 340.278475,633.450048 L353.017989,646.189562 C353.405313,646.576885 353.405802,647.204371 353.005568,647.604605 L351.604605,649.005568 C351.210421,649.399752 350.568923,649.39735 350.189562,649.017989 L337.450048,636.278475 Z M324,605 C315.715729,605 309,611.715729 309,620 C309,620.552285 309.447715,621 310,621 C310.552285,621 311,620.552285 311,620 C311,612.820298 316.820298,607 324,607 C324.552285,607 325,606.552285 325,606 C325,605.447715 324.552285,605 324,605 Z" id="search-icon-14" sketch:type="MSShapeGroup"></path>
        </g>
    </g>
</svg>