<?xml version="1.0" encoding="UTF-8" standalone="no"?>
<svg width="52px" height="52px" viewBox="0 0 52 52" version="1.1" xmlns="http://www.w3.org/2000/svg" xmlns:xlink="http://www.w3.org/1999/xlink" xmlns:sketch="http://www.bohemiancoding.com/sketch/ns">
    <!-- Generator: Sketch 3.4.4 (17249) - http://www.bohemiancoding.com/sketch -->
    <title>search-icon-13</title>
    <desc>Created with Sketch.</desc>
    <defs></defs>
    <g id="Page-1" stroke="none" stroke-width="1" fill="none" fill-rule="evenodd" sketch:type="MSPage">
        <g id="icon-search" sketch:type="MSArtboardGroup" transform="translate(-658.000000, -511.000000)" fill="#000000">
            <path d="M692.367942,548.196369 C688.736454,551.19709 684.078773,553 679,553 C667.40202,553 658,543.59798 658,532 C658,520.40202 667.40202,511 679,511 C690.59798,511 700,520.40202 700,532 C700,537.078773 698.19709,541.736454 695.196369,545.367942 L708.703386,558.874959 C709.481728,559.653301 709.484979,560.911991 708.698485,561.698485 C707.917436,562.479533 706.650061,562.478489 705.874959,561.703386 L692.367942,548.196369 Z M679,549 C688.388841,549 696,541.388841 696,532 C696,522.611159 688.388841,515 679,515 C669.611159,515 662,522.611159 662,532 C662,541.388841 669.611159,549 679,549 Z" id="search-icon-13" sketch:type="MSShapeGroup"></path>
        </g>
    </g>
</svg>