<?xml version="1.0" encoding="UTF-8" standalone="no"?>
<svg width="52px" height="52px" viewBox="0 0 52 52" version="1.1" xmlns="http://www.w3.org/2000/svg" xmlns:xlink="http://www.w3.org/1999/xlink" xmlns:sketch="http://www.bohemiancoding.com/sketch/ns">
    <!-- Generator: Sketch 3.4.4 (17249) - http://www.bohemiancoding.com/sketch -->
    <title>search-icon-11</title>
    <desc>Created with Sketch.</desc>
    <defs></defs>
    <g id="Page-1" stroke="none" stroke-width="1" fill="none" fill-rule="evenodd" sketch:type="MSPage">
        <g id="icon-search" sketch:type="MSArtboardGroup" transform="translate(-526.000000, -511.000000)" fill="#000000">
            <path d="M546,551 C557.045695,551 566,542.045695 566,531 C566,519.954305 557.045695,511 546,511 C534.954305,511 526,519.954305 526,531 C526,542.045695 534.954305,551 546,551 Z M546,546 C554.284271,546 561,539.284271 561,531 C561,522.715729 554.284271,516 546,516 C537.715729,516 531,522.715729 531,531 C531,539.284271 537.715729,546 546,546 Z M561.286384,550.529025 C560.508931,549.751571 560.513846,548.486154 561.291418,547.708582 L562.708582,546.291418 C563.488816,545.511184 564.756452,545.513812 565.529025,546.286384 L576.855751,557.613111 C577.633205,558.390564 577.62829,559.655981 576.850718,560.433553 L575.433553,561.850718 C574.65332,562.630952 573.385683,562.628324 572.613111,561.855751 L561.286384,550.529025 Z" id="search-icon-11" sketch:type="MSShapeGroup"></path>
        </g>
    </g>
</svg>