<?xml version="1.0" encoding="UTF-8" standalone="no"?>
<svg width="75px" height="76px" viewBox="0 0 75 76" version="1.1" xmlns="http://www.w3.org/2000/svg" xmlns:xlink="http://www.w3.org/1999/xlink" xmlns:sketch="http://www.bohemiancoding.com/sketch/ns">
    <!-- Generator: Sketch 3.4.4 (17249) - http://www.bohemiancoding.com/sketch -->
    <title>search-icon-3</title>
    <desc>Created with Sketch.</desc>
    <defs></defs>
    <g id="Page-1" stroke="none" stroke-width="1" fill="none" fill-rule="evenodd" sketch:type="MSPage">
        <g id="icon-search" sketch:type="MSArtboardGroup" transform="translate(-484.000000, -390.000000)" fill="#000000">
            <path d="M533.212975,443.041402 C528.008509,447.385824 521.309541,450 514,450 C497.431458,450 484,436.568542 484,420 C484,403.431458 497.431458,390 514,390 C530.568542,390 544,403.431458 544,420 C544,427.819141 541.008613,434.939606 536.107831,440.279403 L558.254834,462.426407 L555.426407,465.254834 L533.212975,443.041402 Z M514,447 C528.911688,447 541,434.911688 541,420 C541,405.088312 528.911688,393 514,393 C499.088312,393 487,405.088312 487,420 C487,434.911688 499.088312,447 514,447 Z" id="search-icon-3" sketch:type="MSShapeGroup"></path>
        </g>
    </g>
</svg>