<svg xmlns="http://www.w3.org/2000/svg" style="width:0; height:0; visibility:hidden;">
    <symbol id="clear-icon" viewBox="0 0 15 15">
       <!-- Generator: Sketch 3.4.4 (17249) - http://www.bohemiancoding.com/sketch --> <title>clear-icon</title> <desc>Created with Sketch.</desc>  <g id="Page-1" stroke="none" stroke-width="1" fill="none" fill-rule="evenodd" sketch:type="MSPage"> <g id="icon-search" sketch:type="MSArtboardGroup" transform="translate(-54.000000, -991.000000)" stroke-linecap="square" stroke="#000000"> <g id="Line-+-Line-Copy-7" sketch:type="MSLayerGroup" transform="translate(54.000000, 991.000000)"> <path d="M6.68753228,7.39463906 L0.955970419,1.6630772 L0.602417028,1.30952381 L1.30952381,0.602417028 L1.6630772,0.955970419 L7.39463906,6.68753228 L13.1262009,0.955970419 L13.4797543,0.602417028 L14.1868611,1.30952381 L13.8333077,1.6630772 L8.10174584,7.39463906 L13.8333077,13.1262009 L14.1868611,13.4797543 L13.4797543,14.1868611 L13.1262009,13.8333077 L7.39463906,8.10174584 L1.6630772,13.8333077 L1.30952381,14.1868611 L0.602417028,13.4797543 L0.955970419,13.1262009 L6.68753228,7.39463906 Z" id="clear-icon" sketch:type="MSShapeGroup"/> </g> </g> </g> 
    </symbol>
    <symbol id="search-icon-dark-thin" viewBox="0 0 16 16">
       <!-- Generator: Sketch 3.4.4 (17249) - http://www.bohemiancoding.com/sketch --> <title>search-icon-dark-thin</title> <desc>Created with Sketch.</desc>  <g id="Page-1" stroke="none" stroke-width="1" fill="none" fill-rule="evenodd" sketch:type="MSPage"> <g id="icon-search" sketch:type="MSArtboardGroup" transform="translate(-317.000000, -1616.000000)" fill="#666666"> <g id="MEDIUM-+-Rectangle-422-+-Oval-183-Copy-19-+-Rectangle-270-Copy-26-+-Search-Medium" sketch:type="MSLayerGroup" transform="translate(254.000000, 1582.000000)"> <g id="Rectangle-422-+-Oval-183-Copy-19-+-Rectangle-270-Copy-26-+-Search-Medium" transform="translate(50.000000, 24.000000)" sketch:type="MSShapeGroup"> <path d="M23.3752279,21.2290927 C22.2789295,22.1349705 20.8728372,22.6792453 19.3396226,22.6792453 C15.8383457,22.6792453 13,19.8408995 13,16.3396226 C13,12.8383457 15.8383457,10 19.3396226,10 C22.8408995,10 25.6792453,12.8383457 25.6792453,16.3396226 C25.6792453,17.8728372 25.1349705,19.2789295 24.2290927,20.3752279 L28.3066827,24.4528179 C28.5416537,24.6877889 28.5426351,25.0677708 28.305203,25.305203 C28.0694147,25.5409912 27.686811,25.5406758 27.4528179,25.3066827 L23.3752279,21.2290927 Z M19.3396226,21.4716981 C22.1739897,21.4716981 24.4716981,19.1739897 24.4716981,16.3396226 C24.4716981,13.5052556 22.1739897,11.2075472 19.3396226,11.2075472 C16.5052556,11.2075472 14.2075472,13.5052556 14.2075472,16.3396226 C14.2075472,19.1739897 16.5052556,21.4716981 19.3396226,21.4716981 Z" id="search-icon-dark-thin"/> </g> </g> </g> </g> 
    </symbol>
    <symbol id="search-icon-dark" viewBox="0 0 14 14">
       <!-- Generator: Sketch 3.4.4 (17249) - http://www.bohemiancoding.com/sketch --> <title>search-icon-dark</title> <desc>Created with Sketch.</desc>  <g id="Page-1" stroke="none" stroke-width="1" fill="none" fill-rule="evenodd" sketch:type="MSPage"> <g id="icon-search" sketch:type="MSArtboardGroup" transform="translate(-498.000000, -1740.000000)" fill="#71828C"> <g id="twitter-+-TWITTER" sketch:type="MSLayerGroup" transform="translate(254.000000, 1701.000000)"> <g id="twitter" transform="translate(50.000000, 30.000000)" sketch:type="MSShapeGroup"> <path d="M199.384615,19.7692308 C202.358456,19.7692308 204.769231,17.3584563 204.769231,14.3846154 C204.769231,11.4107744 202.358456,9 199.384615,9 C196.410774,9 194,11.4107744 194,14.3846154 C194,17.3584563 196.410774,19.7692308 199.384615,19.7692308 Z M199.384615,17.8307692 C201.287874,17.8307692 202.830769,16.2878736 202.830769,14.3846154 C202.830769,12.4813572 201.287874,10.9384615 199.384615,10.9384615 C197.481357,10.9384615 195.938462,12.4813572 195.938462,14.3846154 C195.938462,16.2878736 197.481357,17.8307692 199.384615,17.8307692 Z M203.476198,20.0396498 C203.044863,19.6083149 203.046066,18.9077799 203.476923,18.4769231 C203.908658,18.0451878 204.609733,18.0462809 205.03965,18.4761979 L207.139187,20.5757349 C207.570521,21.0070697 207.569318,21.7076047 207.138462,22.1384615 C206.706726,22.5701968 206.005652,22.5691038 205.575735,22.1391867 L203.476198,20.0396498 Z" id="search-icon-dark"/> </g> </g> </g> </g> 
    </symbol>
    <symbol id="search-icon" viewBox="0 0 20 20">
       <!-- Generator: Sketch 3.4.4 (17249) - http://www.bohemiancoding.com/sketch --> <title>search-icon</title> <desc>Created with Sketch.</desc>  <g id="Page-1" stroke="none" stroke-width="1" fill="none" fill-rule="evenodd" sketch:type="MSPage"> <g id="icon-search" sketch:type="MSArtboardGroup" transform="translate(-875.000000, -750.000000)" fill="#FFFFFF"> <g id="Rectangle-415-+-google-+-Google" sketch:type="MSLayerGroup" transform="translate(254.000000, 698.000000)"> <g id="google" transform="translate(50.000000, 43.000000)" sketch:type="MSShapeGroup"> <path d="M582.27108,21.5464123 C581.089221,22.4578649 579.607922,23 578,23 C574.134007,23 571,19.8659932 571,16 C571,12.1340068 574.134007,9 578,9 C581.865993,9 585,12.1340068 585,16 C585,17.607169 584.458372,19.0878341 583.547692,20.2694202 L589.806208,26.5279362 C590.157565,26.8792934 590.159033,27.4474884 589.803995,27.8025256 C589.451416,28.1551047 588.879301,28.1546331 588.529406,27.8047382 L582.27108,21.5464123 Z M578,21 C580.761424,21 583,18.7614237 583,16 C583,13.2385763 580.761424,11 578,11 C575.238576,11 573,13.2385763 573,16 C573,18.7614237 575.238576,21 578,21 Z" id="search-icon"/> </g> </g> </g> </g> 
    </symbol></svg>